<?xml version="1.0" standalone="no"?>
<!DOCTYPE svg PUBLIC "-//W3C//DTD SVG 20010904//EN"
 "http://www.w3.org/TR/2001/REC-SVG-20010904/DTD/svg10.dtd">
<svg version="1.0" xmlns="http://www.w3.org/2000/svg"
 width="1000.000000pt" height="1000.000000pt" viewBox="0 0 1000.000000 1000.000000"
 preserveAspectRatio="xMidYMid meet">

<g transform="translate(0.000000,1000.000000) scale(0.100000,-0.100000)"
fill="#000000" stroke="none">
<path d="M0 5000 l0 -5000 5000 0 5000 0 0 5000 0 5000 -5000 0 -5000 0 0
-5000z m4817 3743 c13 -24 30 -43 36 -43 6 0 8 -3 5 -6 -4 -3 8 -19 24 -35 17
-16 28 -29 24 -29 -4 0 7 -15 26 -34 18 -19 36 -32 41 -29 4 2 7 1 7 -4 0 -4
15 -9 32 -10 18 -2 34 -7 36 -13 2 -5 8 -10 14 -10 12 0 68 58 68 71 0 5 6 9
14 9 7 0 54 40 104 89 49 49 108 100 131 113 23 14 38 28 34 33 -5 4 -3 5 4 1
7 -4 10 -13 7 -20 -6 -15 26 -17 37 -3 8 11 38 -32 78 -111 18 -35 38 -65 46
-69 8 -3 15 -10 15 -15 0 -6 11 -23 25 -40 14 -16 25 -36 25 -43 0 -7 4 -15 8
-17 5 -1 20 -21 35 -43 15 -22 27 -35 27 -29 0 12 49 39 64 35 5 -1 16 4 25
12 9 8 31 19 50 26 18 6 39 18 45 27 6 8 18 16 26 18 25 5 70 29 70 38 0 4 11
8 25 8 14 0 25 6 25 13 0 8 20 22 45 33 25 10 45 22 45 26 0 4 8 8 18 8 9 0
25 6 34 13 22 18 89 10 81 -9 -3 -9 2 -14 14 -14 16 0 18 -6 15 -40 -2 -22 -8
-40 -12 -40 -4 0 -13 -22 -20 -50 -7 -27 -21 -61 -31 -75 -11 -13 -22 -34 -24
-46 -3 -12 -16 -44 -30 -70 -14 -27 -25 -57 -25 -67 0 -21 -57 -134 -73 -144
-7 -4 -9 -8 -4 -8 4 0 -8 -31 -28 -68 -19 -38 -35 -73 -35 -78 0 -5 -9 -17
-20 -27 -11 -9 -20 -22 -20 -29 0 -7 -12 -21 -26 -31 -20 -15 -34 -17 -62 -11
-20 4 -40 7 -44 6 -5 -1 -8 2 -8 7 0 5 -9 7 -20 4 -14 -4 -20 0 -20 10 0 18
-59 40 -82 32 -9 -4 -19 -1 -23 4 -3 6 -11 9 -16 6 -5 -4 -9 -1 -9 6 0 10 -3
10 -12 1 -6 -6 -18 -8 -27 -3 -9 5 -35 9 -59 10 -24 0 -51 5 -60 10 -10 5 -24
9 -32 9 -44 -3 -71 3 -64 13 4 8 1 8 -12 1 -11 -5 -78 -8 -154 -6 -155 5 -333
6 -340 4 -19 -8 -217 -5 -227 3 -8 6 -13 6 -13 0 0 -5 -22 -9 -50 -8 -27 1
-50 -3 -50 -8 0 -5 -15 -6 -35 -3 -23 5 -35 3 -35 -4 0 -6 -8 -10 -17 -9 -10
1 -20 0 -23 -1 -26 -10 -50 -5 -50 11 0 16 -4 17 -26 8 -15 -5 -27 -8 -28 -7
-5 8 -61 84 -65 88 -15 13 -51 71 -51 81 0 6 -13 28 -30 49 -16 21 -30 45 -30
53 0 8 -7 20 -16 28 -9 7 -25 33 -36 58 -11 25 -24 53 -29 61 -28 48 -50 110
-55 156 -6 50 -5 53 15 51 11 -1 21 -5 21 -10 0 -5 6 -4 14 2 7 6 20 9 29 5 8
-3 18 -1 22 5 3 6 11 11 16 11 6 0 8 -3 5 -8 -2 -4 7 -13 21 -19 20 -10 23
-10 13 2 -7 8 -7 15 -1 19 5 4 17 -4 25 -16 9 -12 16 -19 16 -14 0 5 6 3 13
-3 8 -6 16 -9 19 -6 3 3 29 -6 59 -20 30 -14 62 -25 72 -25 9 0 17 -5 17 -11
0 -5 4 -8 9 -5 5 3 11 -4 15 -17 4 -16 8 -19 14 -9 7 10 14 11 35 1 15 -7 24
-16 21 -20 -3 -5 0 -9 5 -9 6 0 11 4 11 9 0 5 8 8 17 7 12 -1 18 8 20 27 1 16
7 34 13 42 6 7 8 20 4 29 -3 9 -2 16 4 16 10 0 27 57 48 159 3 13 10 34 16 45
6 12 10 21 8 21 -2 0 3 10 10 22 14 21 14 21 67 -25 30 -25 66 -65 80 -89z
m143 -857 c41 1 81 -3 88 -8 8 -7 12 -7 12 1 0 15 264 8 284 -8 10 -8 16 -9
21 -1 3 6 11 7 18 3 6 -3 38 -7 71 -9 34 -1 86 -5 116 -9 30 -5 65 -7 76 -7
12 1 28 -6 35 -14 11 -14 10 -18 -4 -29 -10 -7 -15 -19 -11 -28 3 -10 -2 -18
-15 -22 -12 -3 -21 -13 -21 -21 0 -11 -7 -13 -27 -8 -16 4 -30 8 -32 10 -2 2
-9 -1 -16 -6 -7 -5 -24 -6 -41 -2 -16 4 -54 6 -84 4 -125 -9 -283 -3 -291 10
-7 10 -9 8 -9 -5 0 -11 -5 -15 -11 -11 -22 13 -367 25 -375 13 -3 -5 -10 -6
-16 -3 -6 4 -36 10 -67 13 -31 3 -55 11 -54 16 1 6 -7 13 -18 17 -17 7 -19 14
-14 45 3 20 7 38 9 40 8 8 117 20 173 19 35 0 63 2 63 5 0 4 15 4 33 0 17 -3
66 -6 107 -5z m290 -345 c0 -5 19 -7 43 -4 23 2 81 6 129 9 75 5 86 4 84 -10
-1 -8 -5 -18 -9 -22 -4 -4 3 -16 15 -26 19 -16 20 -22 10 -38 -8 -13 -8 -21
-1 -26 6 -3 8 -17 5 -30 -4 -13 -2 -24 3 -24 8 0 18 -686 13 -840 -1 -14 1
-32 4 -40 8 -22 19 -770 14 -923 -2 -51 1 -82 9 -90 13 -13 101 -18 101 -6 0
5 6 6 14 3 7 -3 20 1 27 8 8 7 25 13 39 13 14 0 28 4 31 8 3 4 16 9 27 10 12
1 22 4 22 8 0 3 14 5 30 4 17 -1 30 2 30 7 0 5 6 8 13 7 31 -4 49 2 44 15 -3
7 0 13 6 13 38 -1 49 4 43 18 -3 9 -1 15 7 14 33 -4 49 2 43 16 -4 11 2 15 20
15 22 0 25 4 21 20 -3 12 -1 20 6 19 34 -4 49 2 43 16 -3 9 -1 15 7 14 37 -5
48 1 38 20 -9 16 -7 19 15 19 33 0 40 8 23 29 -12 15 -12 16 3 10 10 -3 20 -2
23 4 4 5 11 6 17 3 6 -4 8 1 3 16 -5 14 -3 20 3 16 18 -11 44 6 39 26 -3 10 0
18 6 17 7 -1 26 0 42 1 22 2 25 4 10 7 -19 5 -35 20 -35 36 0 4 3 6 8 6 21 -4
32 3 32 20 0 21 22 33 44 25 8 -3 17 -1 20 4 3 5 -1 9 -10 8 -9 0 -20 9 -25
22 -5 13 -5 21 0 17 17 -10 43 7 38 26 -3 11 2 19 15 23 14 3 19 11 16 24 -5
18 1 19 128 16 74 -1 146 1 161 6 18 5 -22 8 -111 9 -102 0 -141 4 -148 13
-11 18 -10 30 1 23 5 -3 12 -1 15 3 3 5 18 7 33 4 56 -9 248 -3 236 8 -2 3
-53 6 -111 6 -159 2 -159 2 -165 23 -4 17 3 18 127 15 125 -3 203 2 192 14 -3
3 -68 4 -145 3 -131 -2 -140 -1 -150 18 -15 26 -14 29 7 27 13 -1 16 5 14 24
-2 22 2 26 30 28 37 3 52 12 20 12 -12 0 -26 9 -32 20 -9 17 -8 20 10 20 23 0
23 0 11 33 l-9 23 151 0 c190 0 267 4 290 16 12 6 23 6 31 -1 7 -6 16 -8 19
-4 14 13 6 21 -27 25 -19 2 -33 1 -30 -4 2 -4 -31 -7 -73 -7 -43 0 -134 -2
-203 -4 -123 -5 -139 -2 -140 28 0 11 74 14 85 4 9 -10 295 1 339 12 29 8 41
7 46 -1 5 -8 10 -8 14 -2 3 5 17 7 31 5 13 -3 33 -2 42 2 10 4 51 7 91 8 l74
2 -5 -28 c-2 -18 1 -31 9 -34 10 -4 12 -20 7 -64 -5 -52 -4 -59 12 -59 14 0
16 -6 10 -37 -4 -20 -8 -60 -10 -87 -4 -50 -37 -160 -108 -358 -40 -111 -35
-101 -98 -185 -27 -35 -49 -70 -49 -77 0 -8 -7 -16 -15 -19 -8 -3 -23 -27 -35
-52 -12 -25 -27 -49 -35 -52 -8 -3 -15 -11 -15 -19 0 -8 -4 -14 -9 -14 -6 0
-22 -11 -37 -25 -15 -14 -31 -25 -35 -25 -5 0 -9 -6 -9 -14 0 -8 -9 -18 -20
-21 -11 -3 -20 -12 -20 -20 0 -8 -9 -17 -20 -20 -11 -3 -20 -13 -20 -21 0 -8
-8 -14 -19 -14 -11 0 -21 -9 -24 -21 -3 -12 -10 -18 -16 -15 -6 4 -19 -2 -29
-12 -10 -10 -26 -21 -35 -25 -9 -3 -17 -11 -17 -16 0 -11 -54 -40 -84 -47 -11
-2 -22 -7 -25 -12 -7 -10 -61 -26 -75 -23 -5 1 -13 -3 -17 -10 -9 -15 -39 -21
-39 -8 0 5 -11 2 -25 -7 -14 -9 -28 -14 -32 -11 -3 4 -17 -3 -32 -14 -15 -12
-27 -16 -29 -10 -2 6 -9 8 -14 5 -10 -7 -22 -9 -88 -19 -34 -6 -103 -14 -170
-20 -30 -3 -150 -6 -265 -6 l-211 -1 2 -126 c2 -70 3 -127 4 -127 4 0 11 -216
13 -387 1 -102 5 -189 7 -192 3 -3 5 -59 4 -125 -2 -111 6 -150 25 -125 3 5
12 9 19 10 38 3 40 5 34 26 -3 13 -1 19 6 15 19 -13 43 4 36 25 -4 13 -2 18 4
14 19 -12 43 5 36 26 -4 13 -2 18 4 14 19 -12 43 5 36 26 -4 13 -1 19 8 17 31
-4 40 1 35 21 -3 12 -1 20 6 19 32 -4 39 2 33 25 -4 18 -2 23 12 22 11 -1 17
6 17 19 0 11 9 22 20 26 13 4 19 13 18 28 -2 13 2 21 10 20 31 -4 39 2 34 22
-4 15 -2 19 9 15 25 -9 45 5 38 26 -4 13 -2 18 4 14 16 -10 44 5 38 20 -5 13
19 20 47 15 5 -1 6 7 2 18 -3 12 -1 19 7 18 37 -1 50 4 44 18 -4 11 2 15 20
15 22 0 25 4 21 20 -3 12 -1 20 6 19 31 -4 39 2 34 22 -4 15 -2 19 8 15 18 -7
37 17 29 38 -5 12 -1 16 17 14 18 -2 25 3 27 19 2 13 8 20 16 17 8 -3 21 2 30
12 10 9 28 17 40 17 17 -1 22 4 19 16 -4 16 14 17 199 17 205 1 275 4 293 16
6 4 17 3 24 -1 6 -4 35 -4 64 1 29 4 85 7 125 6 57 -2 72 -6 72 -18 0 -9 -6
-22 -12 -28 -10 -10 -8 -14 10 -18 22 -6 31 -37 13 -48 -20 -13 -18 -46 5 -69
21 -22 23 -28 13 -58 -6 -19 -19 -40 -27 -46 -14 -12 -13 -13 5 -13 19 0 20
-2 7 -52 -8 -30 -24 -61 -36 -72 -13 -10 -23 -23 -23 -30 0 -10 -16 -14 -73
-17 -13 -1 -26 -8 -29 -15 -3 -8 -13 -14 -24 -14 -10 0 -22 -6 -26 -13 -4 -8
-16 -16 -25 -20 -10 -3 -18 -13 -18 -21 0 -8 -9 -18 -20 -21 -11 -3 -20 -12
-20 -20 0 -8 -9 -17 -20 -20 -11 -3 -20 -12 -20 -20 0 -7 -11 -16 -25 -19 -14
-4 -25 -13 -25 -21 0 -8 -7 -15 -15 -15 -8 0 -19 -9 -25 -20 -6 -11 -20 -20
-30 -20 -11 0 -20 -7 -20 -15 0 -8 -6 -15 -14 -15 -8 0 -21 -8 -28 -18 -7 -10
-21 -21 -30 -25 -10 -3 -18 -13 -18 -22 0 -8 -6 -15 -13 -15 -7 0 -36 -32 -66
-70 -29 -39 -57 -70 -62 -70 -5 0 -9 -6 -9 -14 0 -8 -9 -18 -20 -21 -11 -3
-20 -12 -20 -20 0 -8 -9 -16 -19 -20 -11 -3 -23 -15 -26 -26 -4 -10 -12 -19
-20 -19 -8 0 -16 -9 -20 -19 -3 -10 -15 -21 -25 -24 -11 -3 -20 -12 -20 -20 0
-9 -10 -17 -22 -19 -13 -2 -23 -9 -23 -17 0 -8 -11 -15 -24 -16 -13 -1 -35
-15 -49 -31 -13 -16 -40 -46 -59 -67 l-36 -37 39 -1 c22 -1 47 0 57 1 13 1 17
-4 15 -17 -2 -13 3 -18 22 -18 18 0 24 -5 22 -17 -2 -13 4 -18 23 -18 16 0 25
-6 25 -15 0 -9 9 -15 25 -15 20 0 25 -5 25 -26 0 -21 3 -24 21 -19 19 6 21 4
17 -24 -3 -21 0 -31 9 -31 7 0 13 -11 13 -25 0 -16 6 -25 16 -25 12 0 15 -7
12 -25 -4 -20 -1 -25 15 -25 15 0 18 -5 15 -25 -4 -20 -1 -25 15 -25 16 0 19
-5 14 -29 -5 -25 -4 -28 14 -24 17 5 19 2 14 -26 -4 -22 -2 -30 7 -29 8 2 13
-7 13 -22 0 -14 6 -29 13 -33 9 -6 11 -18 8 -33 -5 -17 -2 -23 6 -22 8 2 13
-7 13 -24 -1 -18 4 -28 13 -28 11 0 13 -8 9 -30 -5 -21 -3 -29 6 -27 7 1 12
-9 12 -23 0 -14 6 -31 13 -39 7 -7 11 -20 8 -27 -3 -7 -1 -16 4 -19 6 -4 10
-17 10 -30 0 -13 5 -27 11 -31 6 -3 9 -17 6 -30 -3 -17 0 -24 11 -24 10 0 13
-7 10 -24 -3 -16 0 -27 10 -31 9 -3 13 -14 10 -30 -4 -16 -1 -25 8 -25 7 0 11
-10 9 -25 -1 -17 3 -25 13 -25 10 0 13 -8 10 -30 -3 -20 0 -30 9 -30 7 0 13
-11 13 -25 0 -14 5 -25 11 -25 7 0 10 -12 7 -30 -4 -26 -2 -29 15 -24 17 5 19
2 15 -25 -3 -24 -2 -28 8 -20 7 6 19 7 25 3 8 -5 11 -2 7 7 -21 55 -21 55 26
54 25 0 48 -3 51 -7 10 -10 287 1 334 14 35 9 46 9 49 -1 3 -9 7 -9 17 -1 8 7
15 7 19 1 4 -6 19 -6 40 0 48 13 181 16 180 4 -1 -6 -5 -20 -9 -33 -5 -18 -2
-25 13 -29 17 -4 19 -9 11 -30 -15 -40 -11 -83 7 -83 14 0 15 -7 9 -43 -4 -23
-8 -58 -10 -77 -9 -111 -44 -243 -79 -294 -42 -63 -100 -123 -125 -131 -12 -3
-21 -13 -21 -21 0 -8 -7 -14 -16 -14 -9 0 -18 -8 -21 -19 -3 -10 -14 -19 -26
-20 -59 -4 -328 -6 -449 -2 -114 3 -138 6 -138 19 0 12 -3 12 -15 2 -22 -19
-48 -5 -40 22 6 22 5 22 -9 4 -19 -23 -46 -14 -47 16 0 13 -3 17 -6 11 -7 -18
-43 -16 -43 2 0 8 -11 17 -25 21 -14 3 -25 10 -25 15 0 5 -3 8 -7 8 -22 -4
-43 2 -43 12 0 7 9 9 21 6 12 -3 19 -1 16 6 -2 6 -14 14 -28 17 -13 3 -25 14
-27 23 -3 15 2 17 25 13 23 -5 22 -3 -6 6 -28 10 -36 9 -45 -3 -11 -15 -46
-15 -46 0 0 16 14 20 27 10 21 -18 15 4 -12 41 -14 18 -34 34 -45 35 -12 1
-26 8 -33 15 -10 10 -7 12 15 8 24 -5 26 -3 17 14 -6 11 -17 17 -24 14 -7 -2
-21 2 -32 9 -17 14 -17 14 3 15 17 0 21 6 21 28 0 15 -2 21 -4 15 -6 -15 -49
-17 -58 -3 -6 9 8 14 28 11 21 -3 3 18 -23 28 -34 11 -42 36 -9 28 16 -4 18
-3 9 8 -7 8 -21 17 -31 20 -14 5 -18 12 -14 26 4 11 2 19 -5 19 -6 0 -15 12
-20 26 -6 15 -21 41 -33 57 -12 17 -43 74 -69 127 -45 93 -46 95 -25 102 l22
6 -22 1 c-19 1 -55 41 -37 41 3 0 2 6 -3 13 -6 6 -13 20 -17 31 -5 13 -2 17 9
13 8 -4 17 -2 20 3 4 6 -4 10 -18 10 -19 0 -26 9 -39 51 -14 42 -14 50 -3 45
8 -3 17 -1 20 4 4 6 -3 10 -14 10 -11 0 -25 9 -31 20 -6 11 -8 20 -5 20 3 0
-2 14 -11 31 -14 29 -14 31 0 26 8 -3 18 -2 21 3 4 6 -3 10 -14 10 -12 0 -21
4 -21 9 0 5 -3 17 -7 27 -5 13 -3 16 10 11 9 -3 19 -2 22 3 4 6 -3 10 -13 10
-19 0 -31 17 -38 53 -2 10 -13 36 -24 57 -11 22 -18 40 -15 40 3 0 -1 10 -9
23 -7 12 -16 34 -20 50 -6 26 -8 27 -75 27 -46 0 -71 4 -74 13 -3 8 -9 6 -19
-7 -8 -10 -20 -16 -26 -12 -15 9 -9 45 9 57 10 6 8 9 -11 9 -61 0 -68 -8 -64
-63 6 -89 13 -285 16 -454 2 -90 6 -163 10 -163 5 0 8 -15 8 -32 -1 -18 2
-100 5 -183 11 -292 13 -800 3 -848 -5 -26 -17 -51 -26 -56 -10 -4 -55 -13
-102 -20 -232 -32 -380 -34 -380 -5 0 8 7 14 15 14 24 0 17 13 -18 38 l-32 22
33 0 c17 0 32 5 32 10 0 6 -9 10 -20 10 -11 0 -20 5 -20 11 0 6 -7 3 -16 -5
-14 -14 -17 -14 -33 2 -10 9 -21 25 -25 36 -5 15 -2 17 14 13 11 -3 20 -1 20
4 0 8 -22 13 -42 10 -5 0 -8 4 -8 9 0 6 5 10 11 10 8 0 8 4 0 13 -6 8 -12 24
-14 38 -4 25 -2 24 -114 28 -17 1 -24 9 -29 36 -3 19 -11 35 -17 35 -6 0 -26
14 -44 32 l-33 32 0 123 c0 68 3 123 8 123 4 0 99 -86 212 -191 171 -159 206
-187 212 -172 7 16 7 16 6 -2 -2 -11 5 -31 14 -44 9 -13 14 -30 11 -37 -3 -8
0 -14 7 -14 7 0 18 -8 25 -17 12 -16 14 -16 39 0 15 10 26 13 26 7 0 -11 24
-40 33 -40 3 0 3 9 0 20 -3 11 0 20 6 20 6 0 11 9 11 21 0 15 5 19 15 15 9 -3
15 0 15 10 0 12 6 15 21 11 l21 -6 -21 23 c-22 23 -30 49 -9 28 17 -17 28 -15
21 5 -4 11 -3 14 5 9 7 -4 12 -1 12 8 0 9 6 16 13 16 7 1 5 6 -6 14 -15 12
-15 15 -3 26 16 13 40 5 31 -11 -4 -5 -2 -9 4 -9 5 0 9 9 8 21 -1 17 -6 20
-32 15 -24 -4 -26 -3 -12 5 21 12 22 29 2 29 -19 0 -19 7 -1 25 7 8 17 11 21
7 4 -4 2 3 -4 16 -10 20 -10 27 3 41 9 10 16 21 16 26 0 5 -9 -1 -20 -13 -11
-12 -20 -34 -20 -49 l0 -27 -16 22 c-14 20 -14 24 0 38 9 8 16 21 17 27 6 89
3 132 -10 132 -8 0 -15 7 -16 16 -2 12 3 15 16 12 19 -5 27 11 10 21 -5 3 -7
33 -5 67 3 54 1 62 -16 66 -11 3 -20 12 -20 20 0 13 3 13 15 3 8 -7 15 -9 15
-4 0 5 3 19 6 32 4 13 2 22 -5 22 -5 0 -9 -6 -7 -12 1 -7 1 -10 -1 -6 -2 4
-12 4 -21 1 -13 -4 -14 -3 -4 5 8 5 12 18 10 28 -2 13 3 19 14 18 9 -1 19 7
21 17 5 20 -7 26 -18 9 -10 -17 -42 -11 -42 8 0 22 16 44 28 36 5 -3 12 2 16
11 7 19 -15 37 -34 30 -7 -2 -13 2 -13 10 0 17 16 20 25 5 5 -8 11 -7 20 0 16
13 8 43 -9 33 -6 -4 -3 5 7 20 17 26 17 27 -3 27 -11 0 -20 7 -20 15 0 14 -12
19 -32 16 -12 -2 -10 37 2 44 6 3 10 0 10 -8 0 -12 39 -32 47 -24 1 2 -4 16
-12 31 -13 25 -13 27 1 22 8 -3 12 -2 9 4 -8 13 -35 13 -35 0 0 -5 -5 -10 -10
-10 -6 0 -5 8 2 19 9 15 9 23 -1 35 -8 9 -9 16 -3 16 6 0 12 -6 15 -12 3 -10
10 -8 23 4 18 17 18 18 0 18 -15 0 -17 6 -14 30 3 16 0 30 -5 30 -5 0 -7 6 -4
13 2 6 10 11 16 10 6 -2 11 4 11 12 0 8 -4 15 -10 15 -5 0 -7 6 -4 14 6 16
-32 42 -56 38 -13 -3 -13 -2 0 7 19 14 53 14 45 1 -3 -5 -1 -10 4 -10 6 0 11
7 11 15 0 8 -4 15 -10 15 -5 0 -7 7 -4 15 5 11 2 13 -10 9 -13 -5 -20 3 -15
19 0 1 -4 14 -10 30 -7 17 -7 27 -1 27 6 0 10 5 10 11 0 7 8 18 18 25 14 12
15 15 3 23 -21 13 -24 92 -5 84 12 -4 14 0 8 21 -4 19 -2 27 11 32 13 5 14 9
4 15 -7 4 -18 4 -24 -1 -7 -6 -15 -3 -22 8 -8 13 -6 21 5 32 14 13 15 12 10
-1 -4 -9 0 -15 11 -15 9 0 17 8 17 18 0 10 -6 18 -12 18 -17 0 -36 58 -22 66
7 5 8 2 3 -6 -6 -10 -4 -12 9 -7 10 4 30 7 46 7 24 0 27 3 23 23 -4 21 -4 21
11 3 11 -14 23 -17 46 -13 21 5 30 3 30 -6 0 -16 36 -47 55 -47 8 0 15 7 15
15 0 8 5 15 10 15 6 0 10 -7 10 -15 0 -9 6 -12 15 -9 8 4 15 12 15 19 0 9 11
12 39 8 23 -3 41 -1 45 6 4 6 16 11 27 11 10 0 19 4 19 10 0 11 32 1 43 -14 5
-7 10 -6 17 4 5 8 10 12 10 8 1 -46 47 -59 75 -22 13 17 14 17 15 2 0 -12 5
-16 18 -12 13 5 14 4 3 -4 -10 -8 -11 -14 -1 -32 8 -14 15 -19 19 -12 5 8 17
8 36 3 22 -7 25 -10 10 -11 -11 -1 -14 -4 -7 -7 6 -2 12 -11 12 -19 0 -12 2
-12 14 -2 9 9 11 20 5 35 -11 28 -6 29 25 2 15 -13 22 -28 19 -40 -3 -11 0
-19 6 -19 7 0 9 4 6 10 -3 6 1 7 9 4 9 -3 16 -1 16 6 0 6 5 8 11 4 7 -4 2 -15
-15 -31 -28 -25 -36 -44 -11 -23 11 9 15 9 15 1 0 -7 4 -10 8 -7 14 8 52 -33
52 -55 0 -24 20 -47 36 -42 6 2 14 -5 17 -17 6 -23 -12 -27 -45 -9 -16 9 -19
8 -15 -3 2 -7 10 -12 16 -11 15 4 14 -14 -1 -19 -13 -5 -2 -28 13 -28 6 0 7 5
4 10 -3 5 -1 10 4 10 13 0 13 -2 1 -34 -7 -21 -6 -26 5 -26 8 0 15 -4 15 -10
0 -5 -5 -10 -11 -10 -13 0 -7 -21 6 -22 18 -2 34 -33 28 -57 -3 -13 -1 -26 6
-30 7 -5 8 -17 2 -39 -6 -20 -6 -32 0 -32 5 0 9 -9 9 -20 0 -22 16 -27 23 -7
2 6 8 9 12 5 4 -4 -2 -17 -14 -29 -25 -27 -27 -47 -6 -55 10 -4 14 -17 12 -38
-2 -27 1 -31 21 -29 14 2 22 -3 22 -13 0 -8 -6 -14 -12 -13 -7 1 -22 1 -33 0
-16 -1 -17 -3 -5 -10 8 -6 17 -8 21 -6 3 3 4 -12 2 -31 -2 -22 2 -46 11 -59 8
-12 13 -31 10 -42 -3 -11 2 -25 10 -32 22 -18 21 -42 -1 -34 -13 5 -15 2 -10
-11 4 -10 7 -24 7 -32 0 -8 6 -14 13 -13 24 3 37 -1 37 -12 0 -6 -7 -9 -15 -5
-9 3 -19 -3 -25 -14 -6 -11 -8 -21 -5 -21 3 -1 9 -2 14 -3 5 0 13 -5 18 -10 5
-5 2 -6 -6 -1 -11 6 -13 3 -9 -13 4 -13 1 -22 -5 -23 -7 0 -1 -5 13 -11 14 -6
31 -10 38 -9 7 1 12 -9 12 -24 0 -14 4 -24 9 -20 5 3 12 1 16 -5 3 -5 11 -10
17 -10 7 0 6 6 -2 15 -8 9 -9 15 -2 15 20 0 24 -22 7 -38 -13 -13 -19 -14 -22
-4 -3 6 -9 10 -14 7 -21 -14 16 -31 52 -25 29 5 36 4 32 -7 -3 -7 -9 -13 -14
-13 -5 0 -9 -5 -9 -10 0 -7 6 -7 19 -1 18 10 18 8 9 -31 -5 -23 -11 -45 -14
-50 -3 -4 1 -8 9 -8 8 0 18 7 21 16 5 12 14 14 38 9 39 -9 49 -21 39 -49 -5
-12 -6 -27 -3 -35 3 -11 9 -9 21 8 16 21 17 22 38 4 17 -15 19 -23 11 -38 -9
-17 -8 -18 3 -7 17 16 34 16 21 -1 -9 -10 -4 -13 20 -15 18 -2 29 0 25 4 -4 4
1 13 11 20 22 17 35 17 29 0 -3 -7 0 -19 6 -25 6 -6 8 -14 4 -18 -4 -3 -14 2
-22 13 -9 12 -14 14 -15 6 0 -14 25 -44 31 -38 2 2 19 6 38 10 26 5 32 3 28
-8 -4 -11 1 -14 21 -12 15 1 36 -2 47 -8 11 -6 39 -11 63 -12 25 0 47 -6 52
-14 6 -10 12 -11 22 -3 16 13 49 13 65 1 18 -14 35 0 28 23 -8 23 8 25 29 4
16 -17 36 -20 36 -6 0 5 -7 17 -16 25 -23 23 -1 20 26 -4 26 -22 46 -27 33 -7
-4 6 -8 22 -8 34 -1 26 31 38 40 15 5 -14 7 -14 22 1 15 14 15 17 -1 32 -9 9
-16 21 -16 27 0 6 9 -1 21 -16 11 -14 25 -26 30 -26 15 0 49 63 44 81 -3 9 2
24 11 33 15 16 15 18 -2 31 -18 13 -18 14 -1 15 18 0 25 20 7 20 -5 0 -10 5
-10 11 0 6 10 8 23 5 22 -6 22 -6 -1 6 -19 9 -25 9 -32 -2 -6 -10 -12 -11 -22
-2 -16 13 -122 10 -158 -5 -18 -8 -27 -7 -33 1 -5 7 -13 3 -25 -12 -16 -20
-22 -22 -46 -12 -25 9 -28 8 -24 -7 4 -13 -1 -18 -19 -19 -19 -2 -22 2 -18 17
8 23 -10 26 -19 3 -7 -17 -21 -11 -21 8 0 6 -6 13 -14 16 -10 3 -12 0 -8 -12
4 -9 2 -16 -3 -16 -6 0 -10 7 -10 15 0 8 -4 15 -10 15 -5 0 -10 -7 -10 -15 0
-8 -7 -15 -15 -15 -15 0 -20 16 -17 53 1 10 -3 15 -8 12 -6 -3 -10 -1 -10 4 0
6 -5 11 -11 11 -8 0 -7 -5 1 -15 23 -27 2 -28 -21 -1 -12 14 -26 26 -31 26
-12 0 -10 -28 3 -32 7 -2 5 -9 -5 -17 -14 -12 -16 -11 -16 7 0 11 -3 28 -6 37
-4 9 -3 15 2 14 34 -6 14 23 -24 35 -26 9 -30 -10 -7 -40 20 -27 18 -36 -4
-22 -11 7 -18 15 -15 19 2 4 -6 5 -18 1 -18 -4 -20 -2 -13 14 4 10 8 24 8 31
0 7 3 12 6 11 18 -2 21 4 7 17 -8 8 -22 15 -31 15 -11 0 -15 5 -12 14 4 10 0
12 -15 8 -16 -4 -20 -2 -15 10 3 9 -3 24 -13 33 -17 15 -22 16 -36 4 -16 -13
-16 -12 -6 7 8 16 8 24 -1 33 -8 8 -8 17 -1 29 8 13 6 21 -7 34 -10 9 -20 14
-23 11 -3 -4 -6 1 -6 10 0 8 -8 17 -17 19 -16 3 -16 5 -2 18 14 13 14 16 -2
30 -14 12 -16 23 -11 55 6 29 3 50 -10 77 -21 44 -23 58 -6 58 7 0 3 7 -8 15
-16 11 -21 23 -19 53 1 22 6 45 10 52 5 8 4 11 -2 7 -6 -4 -11 3 -12 16 -1 53
-7 93 -14 105 -5 6 -4 12 1 12 21 0 6 30 -22 44 -20 10 -25 16 -13 16 21 0 23
34 2 74 -12 22 -12 32 -4 43 9 11 9 12 -3 8 -11 -5 -15 1 -15 19 0 14 3 26 8
26 20 0 7 18 -16 24 -15 4 -25 14 -25 25 0 10 -3 21 -7 25 -4 4 -8 17 -8 28 0
12 -7 23 -15 26 -13 5 -13 3 -1 -11 12 -15 11 -17 -3 -17 -9 0 -16 -7 -16 -16
0 -8 -4 -13 -9 -9 -6 3 -6 17 1 35 13 39 5 60 -24 61 -17 1 -18 2 -5 6 21 5
22 19 2 27 -8 3 -12 12 -9 21 7 17 -11 21 -21 5 -3 -6 -12 -10 -18 -10 -7 0
-6 4 3 10 12 8 12 10 -4 16 -13 5 -15 9 -5 15 8 4 10 12 5 16 -4 4 -14 -1 -22
-11 -7 -11 -17 -17 -21 -13 -3 4 1 15 9 24 25 29 28 40 13 40 -8 0 -15 -7 -15
-15 0 -8 -6 -12 -15 -8 -10 3 -15 -1 -15 -11 0 -13 -3 -14 -12 -5 -9 9 -7 17
10 35 20 21 21 25 6 43 -15 18 -15 18 -9 -3 5 -18 2 -23 -13 -23 -11 0 -22 -5
-24 -12 -5 -13 -40 3 -40 18 0 5 -5 8 -10 6 -10 -3 -9 12 3 58 3 10 -2 14 -16
12 -25 -5 -34 -13 -18 -19 20 -7 2 -33 -23 -33 -16 0 -24 -6 -24 -17 0 -12 -5
-9 -15 11 -16 30 -10 80 8 69 6 -4 7 -1 2 7 -6 10 -11 9 -21 -4 -12 -17 -64
-30 -64 -16 0 4 8 14 17 21 11 10 14 10 9 2 -10 -18 9 -16 24 3 11 12 11 15 0
12 -8 -2 -15 4 -15 12 -1 19 -26 14 -42 -7 -7 -9 -13 -13 -13 -8 0 5 7 17 16
27 15 15 15 18 1 23 -21 9 -10 47 12 40 11 -3 20 5 30 26 7 16 15 28 18 25 3
-2 18 11 35 30 17 19 38 34 48 34 21 0 35 16 22 24 -5 3 -9 24 -10 48 -2 33 1
39 10 30 19 -19 26 -14 39 28 7 22 16 40 21 40 4 0 8 7 8 15 0 8 5 15 10 15 6
0 4 -12 -4 -29 -9 -16 -12 -31 -9 -35 10 -9 34 15 26 27 -4 6 0 8 9 4 12 -4
14 -1 11 14 -3 12 0 19 8 19 12 0 12 2 1 9 -17 10 -12 43 7 49 9 3 11 0 6 -7
-7 -12 21 -51 36 -51 4 0 3 14 -3 31 -10 28 -8 34 11 48 12 9 24 26 26 36 2
11 4 22 5 25 0 3 7 -4 15 -14 14 -18 12 -22 -18 -47 -19 -17 -26 -28 -18 -29
27 0 61 42 61 76 0 33 20 58 28 36 2 -7 8 -12 14 -12 5 0 6 9 3 20 -5 14 -2
20 9 20 9 0 16 7 16 15 0 8 9 15 19 15 11 0 23 9 26 20 3 11 11 20 16 20 5 0
9 7 9 15 0 8 7 15 15 15 18 0 19 -12 3 -29 -11 -10 -10 -11 5 -6 15 6 22 24
18 48 0 4 4 7 11 7 6 0 9 3 5 6 -8 8 21 38 40 40 8 2 21 11 29 21 10 12 17 14
20 6 3 -7 23 6 50 33 25 24 47 44 49 44 1 0 18 14 36 30 17 17 38 29 45 26 7
-3 17 8 24 24 14 33 38 46 46 25 8 -19 20 -19 27 -1 4 10 1 13 -9 9 -7 -3 -14
-2 -14 1 0 4 14 12 30 17 17 6 30 16 30 21 0 6 -8 4 -17 -3 -16 -13 -17 -12
-5 3 8 9 20 14 27 12 10 -4 12 1 9 18 -5 22 -5 22 10 4 9 -11 16 -18 17 -15 6
44 5 69 -4 69 -7 0 -7 4 1 12 7 7 12 36 12 66 0 45 -3 55 -20 59 -11 3 -20 9
-20 14 0 19 -28 8 -35 -13 -6 -20 -8 -20 -12 -5 -2 9 -10 17 -18 17 -9 0 -11
-7 -7 -22 4 -16 2 -19 -9 -12 -8 4 -18 9 -24 10 -5 1 -18 5 -27 9 -10 4 -18 3
-18 -3 0 -5 7 -12 15 -16 17 -6 19 -15 6 -35 -7 -11 -15 -11 -42 -2 -32 11
-32 11 -14 -9 10 -11 13 -20 8 -20 -6 0 -16 7 -23 15 -7 8 -18 15 -24 15 -6 0
-2 -7 8 -15 25 -19 16 -28 -17 -16 -20 8 -28 6 -39 -6 -9 -12 -10 -15 0 -9 7
4 12 2 12 -4 0 -8 -9 -10 -27 -5 -23 5 -25 4 -14 -9 7 -8 19 -12 28 -9 11 4
14 2 11 -8 -2 -8 -17 -15 -31 -17 -16 -2 -27 -9 -27 -19 0 -11 -7 -14 -24 -11
-14 3 -31 1 -38 -3 -10 -7 -10 -9 0 -9 6 0 12 -4 12 -8 0 -10 -51 -37 -63 -34
-4 1 -15 -4 -23 -13 -9 -8 -13 -15 -9 -15 3 0 3 -5 0 -10 -4 -7 -13 -7 -26 0
-14 8 -19 7 -19 -2 0 -7 -9 -19 -20 -26 -11 -7 -20 -19 -20 -28 0 -8 -5 -12
-10 -9 -6 3 -14 -5 -19 -18 -6 -16 -20 -26 -40 -30 -22 -5 -32 -14 -37 -32 -4
-16 -16 -28 -31 -31 -15 -4 -29 -18 -35 -35 -5 -16 -17 -29 -25 -29 -11 0 -14
-7 -9 -24 4 -15 0 -28 -9 -36 -9 -8 -15 -8 -15 -2 0 6 6 12 13 15 8 3 6 7 -7
12 -10 5 -21 3 -25 -2 -21 -34 -47 -63 -56 -63 -17 0 -60 -63 -57 -83 3 -14
-2 -17 -22 -13 -18 3 -23 1 -19 -10 3 -8 1 -14 -5 -14 -5 0 -9 -8 -8 -17 0
-10 -4 -17 -11 -16 -6 2 -15 -7 -18 -18 -4 -12 -12 -18 -21 -15 -9 4 -14 -2
-14 -15 0 -13 4 -18 12 -13 7 4 8 3 4 -4 -4 -6 -13 -9 -21 -5 -9 3 -15 -1 -15
-11 0 -9 -4 -16 -10 -16 -5 0 -10 -7 -10 -16 0 -11 -6 -15 -18 -12 -15 4 -18
0 -16 -18 1 -13 -2 -22 -7 -18 -5 3 -9 0 -9 -5 0 -6 -7 -11 -15 -11 -8 0 -15
-7 -15 -15 0 -9 -11 -20 -25 -25 -14 -5 -25 -16 -25 -25 0 -8 -3 -14 -7 -14
-19 3 -33 -2 -33 -11 0 -5 7 -7 16 -3 12 4 15 2 12 -8 -2 -8 -15 -15 -27 -17
-12 -2 -25 -10 -28 -18 -3 -8 -12 -14 -21 -14 -8 0 -13 -3 -9 -6 7 -8 -16 -33
-25 -28 -4 3 -25 -13 -47 -35 -24 -24 -46 -38 -55 -35 -8 3 -17 0 -21 -5 -3
-6 -10 -9 -15 -6 -5 3 -30 -6 -55 -20 -46 -25 -85 -33 -85 -16 0 5 7 12 16 15
8 3 12 10 9 16 -4 6 -11 8 -16 5 -14 -9 -11 8 6 32 12 17 12 22 1 26 -9 4 -12
15 -8 32 4 22 1 26 -14 23 -14 -2 -20 4 -22 25 -2 15 1 27 7 27 6 0 11 -9 11
-21 0 -11 4 -18 9 -14 14 8 9 85 -5 85 -7 0 -10 -8 -7 -20 3 -11 0 -20 -6 -20
-16 0 -14 40 3 46 8 3 12 13 9 25 -3 10 0 19 6 19 16 0 13 21 -6 42 -11 12
-12 18 -3 18 7 0 10 7 6 15 -3 8 -1 15 5 15 6 0 8 7 5 15 -3 8 -9 22 -12 30
-4 10 0 15 10 15 19 0 20 5 6 30 -7 13 -7 21 1 26 8 5 7 9 -2 14 -7 5 -19 0
-30 -13 -10 -12 -18 -17 -19 -11 0 19 34 51 49 46 10 -3 12 1 9 16 -4 13 0 23
8 26 8 3 14 10 14 17 0 6 -7 9 -15 6 -8 -4 -17 -2 -20 3 -4 6 -2 10 4 10 12 0
2 32 -13 42 -7 5 -7 11 2 20 10 10 15 10 22 -2 6 -9 10 -10 10 -3 0 6 -5 15
-10 18 -6 4 -8 11 -5 16 4 5 1 9 -5 9 -8 0 -8 6 0 20 9 16 8 20 -5 20 -19 0
-20 39 -1 46 11 4 13 12 6 29 -6 15 -6 27 0 30 13 8 13 52 -1 77 -8 14 -8 23
0 31 6 6 11 21 11 34 0 13 5 23 12 23 9 0 9 3 0 12 -8 8 -15 8 -29 -3 -16 -12
-17 -12 -7 1 5 8 16 28 22 43 11 26 11 28 -9 25 -12 -2 -24 3 -26 10 -3 7 4
12 15 12 16 0 19 5 14 22 -4 16 -2 19 9 13 12 -8 12 -6 0 8 -12 15 -10 18 10
26 17 7 19 10 7 10 -11 1 -15 6 -12 16 4 8 -1 17 -10 21 -11 4 -13 11 -6 23
15 29 9 59 -12 53 -10 -2 -18 1 -18 7 0 7 4 10 9 7 5 -3 12 1 15 10 3 8 11 12
17 8 8 -4 8 0 -1 15 -6 12 -15 19 -21 16 -5 -4 -9 -1 -9 5 0 16 30 24 43 11 6
-6 16 -11 21 -11 6 0 0 7 -12 16 -22 15 -22 17 -8 40 13 18 13 22 2 18 -7 -3
-16 3 -20 13 -6 15 -8 15 -16 3 -7 -11 -10 -5 -10 23 0 26 4 37 15 37 8 0 15
5 15 11 0 5 -4 8 -9 4 -5 -3 -12 -1 -16 4 -3 6 -12 8 -20 4 -10 -3 -15 1 -15
13 0 12 3 15 8 7 9 -14 35 3 45 30 6 15 4 16 -13 7 -13 -7 -21 -7 -26 2 -4 7
-3 8 4 4 7 -4 12 -2 12 3 0 6 7 11 16 11 9 0 14 6 11 13 -2 6 -11 12 -19 11
-8 -1 -15 5 -15 13 0 10 7 13 22 9 19 -5 22 -1 22 24 0 21 -5 30 -16 30 -14 0
-14 2 -1 10 13 8 13 10 -2 10 -9 0 -19 6 -21 13 -4 9 -7 9 -14 0 -10 -13 -39
-1 -30 13 3 5 -22 9 -54 9 -44 0 -59 -4 -59 -14 0 -17 -10 -9 -14 11 -6 26
-18 48 -28 48 -5 0 -6 -4 -3 -10 3 -5 3 -10 -2 -10 -4 0 -13 -11 -20 -25 -6
-14 -7 -22 -1 -19 5 4 8 -7 6 -27 -3 -32 -5 -34 -38 -31 -19 1 -80 13 -135 26
-55 13 -124 27 -153 30 -78 10 -82 13 -83 60 0 22 -3 35 -6 29 -8 -21 -33 -15
-33 7 0 11 -4 20 -10 20 -5 0 -10 -4 -10 -10 0 -5 -9 -10 -20 -10 -13 0 -20 7
-20 20 0 24 -15 26 -24 4 -5 -13 -9 -14 -21 -4 -7 6 -11 18 -8 26 6 16 -13 19
-22 3 -9 -14 -30 -6 -30 12 0 8 -10 14 -25 14 -15 0 -25 6 -25 15 0 10 -8 14
-23 12 -15 -2 -25 3 -30 19 -6 14 -11 18 -16 11 -9 -14 -36 -4 -36 14 0 21
-18 17 -30 -7 -7 -12 -8 -25 -2 -32 8 -11 15 -73 15 -144 0 -18 4 -33 8 -33 5
0 8 -12 7 -27 -1 -16 2 -64 6 -108 5 -44 9 -100 11 -125 2 -25 7 -74 10 -110
3 -36 8 -85 10 -110 2 -25 5 -45 5 -45 2 0 10 -181 13 -280 1 -33 6 -63 12
-67 6 -5 10 -334 10 -930 0 -838 -2 -932 -18 -1021 -9 -54 -24 -115 -33 -135
-8 -20 -17 -55 -20 -76 -8 -82 -67 -276 -84 -276 -4 0 -10 -8 -14 -18 -11 -33
-107 -160 -132 -175 -8 -4 -14 -14 -14 -21 0 -8 -9 -16 -20 -19 -11 -3 -20
-14 -20 -25 0 -11 -7 -25 -15 -32 -8 -7 -15 -9 -15 -5 0 4 -11 0 -25 -9 -14
-9 -30 -14 -35 -11 -6 3 -10 -1 -10 -9 0 -21 -21 -31 -31 -15 -6 11 -9 10 -14
-3 -6 -14 -36 -26 -90 -34 -11 -2 -33 -6 -50 -9 -16 -3 -57 -8 -90 -10 -34 -2
-65 -4 -70 -5 -6 -2 -12 -2 -15 -1 -3 1 -70 4 -150 7 -80 3 -147 10 -148 15
-2 6 -10 5 -19 -2 -11 -10 -19 -10 -33 -1 -14 8 -27 9 -45 2 -34 -13 -35 -13
-29 5 4 10 -1 14 -18 13 -59 -4 -80 2 -85 23 -6 21 -7 21 -19 4 -18 -24 -48
-12 -39 15 7 23 -10 28 -19 5 -3 -9 -12 -12 -21 -9 -9 4 -14 13 -11 20 6 16
-10 28 -19 14 -11 -17 -35 -11 -35 9 0 14 -5 18 -20 14 -12 -3 -22 1 -26 10
-3 8 -16 18 -30 21 -13 4 -24 13 -24 21 0 8 -5 15 -11 15 -5 0 -8 -4 -5 -9 4
-5 -3 -7 -14 -4 -14 4 -19 11 -15 23 3 11 -1 20 -10 24 -9 3 -13 2 -10 -4 3
-6 -1 -10 -9 -10 -8 0 -18 5 -21 10 -3 6 -1 10 4 10 6 0 11 4 11 9 0 5 -11 9
-25 9 -28 0 -42 8 -32 18 4 4 14 1 23 -7 14 -12 16 -11 13 6 -3 11 -13 21 -24
24 -19 3 -35 18 -35 34 0 4 12 4 28 1 15 -4 24 -3 20 1 -4 5 -24 11 -45 14
-20 3 -38 12 -41 20 -3 10 2 11 19 6 22 -7 22 -7 6 9 -9 10 -17 22 -17 27 0 5
-4 9 -10 9 -5 0 -7 -7 -3 -16 4 -12 2 -15 -8 -12 -8 2 -15 14 -17 25 -4 25 25
38 45 22 10 -9 17 -9 25 -1 9 9 8 12 -4 12 -24 0 -48 28 -41 47 5 13 1 15 -24
11 -38 -5 -64 25 -35 41 15 10 15 10 -3 11 -11 0 -26 9 -33 20 -7 11 -18 20
-26 20 -7 0 -16 9 -19 20 -3 11 -12 20 -21 20 -9 0 -16 4 -16 10 0 5 -8 17
-18 27 -26 25 -37 57 -17 50 8 -4 17 -2 20 3 4 6 -3 10 -14 10 -12 0 -21 2
-21 4 0 2 -3 12 -6 21 -4 10 -2 15 6 13 7 -2 15 3 18 11 3 10 0 12 -11 8 -11
-4 -20 1 -27 13 -14 25 -13 30 5 24 8 -4 15 -1 15 5 0 6 -9 11 -20 11 -10 0
-24 9 -30 20 -10 19 -8 20 50 16 47 -3 58 -1 50 9 -6 7 -29 12 -51 12 -36 0
-58 13 -59 33 0 3 50 6 111 5 108 0 143 7 96 19 -13 3 -39 1 -57 -4 -18 -5
-38 -6 -44 -2 -6 4 -31 7 -55 7 -36 1 -45 5 -52 23 -8 21 -6 21 53 18 50 -3
59 -1 46 8 -9 7 -35 11 -57 10 -23 -1 -41 2 -41 6 0 5 -3 16 -6 24 -5 12 -2
15 10 10 9 -3 16 -1 16 5 0 6 -9 11 -20 11 -11 0 -20 2 -20 4 0 2 -3 11 -6 20
-5 13 5 15 73 11 56 -4 73 -2 61 5 -10 6 -43 12 -75 13 -32 1 -61 6 -65 12
-19 26 -6 31 70 28 53 -2 72 0 61 7 -10 5 -44 10 -77 11 -50 1 -61 5 -65 20
-3 13 0 19 11 20 45 4 58 4 69 -5 7 -4 30 -5 50 -1 32 6 35 9 18 15 -11 5 -48
9 -82 9 -53 1 -64 4 -74 23 -10 18 -9 20 5 15 8 -3 18 -2 21 3 3 5 21 4 41 -2
38 -10 99 -4 109 11 2 5 -23 9 -58 9 -112 1 -114 1 -120 21 -4 18 1 19 82 19
126 -1 152 2 146 12 -3 5 -43 9 -88 8 -128 -1 -134 0 -140 22 -5 18 -1 19 56
15 71 -5 207 5 207 14 0 4 -57 7 -126 6 -120 0 -127 1 -135 21 -7 21 -6 21 89
17 99 -5 182 2 182 16 0 4 -59 7 -131 7 -124 -1 -132 0 -139 20 -7 19 -5 20
39 18 106 -6 234 -3 251 6 9 5 20 6 24 3 3 -3 6 -1 6 5 0 16 -36 25 -57 14
-10 -5 -72 -9 -138 -8 -105 1 -120 3 -123 19 -2 11 3 17 14 17 13 0 15 6 11
28 l-6 27 187 -2 c103 -1 207 3 231 8 32 7 46 7 51 -2 5 -7 10 -7 14 -1 3 5
17 7 31 5 13 -3 33 -2 42 2 10 5 51 10 91 12 59 2 72 0 72 -12 0 -9 9 -15 23
-15 16 0 23 -6 24 -20 1 -11 -4 -20 -10 -20 -7 -1 -1 -10 12 -21 22 -18 23
-22 10 -47 -7 -15 -14 -30 -16 -33 -1 -3 7 -16 19 -28 16 -18 19 -31 14 -59
-3 -20 -13 -43 -23 -49 -16 -12 -16 -13 0 -13 9 0 17 -6 17 -12 0 -31 -24 -95
-42 -115 -18 -19 -19 -30 -13 -85 3 -35 6 -71 6 -80 0 -9 7 -22 14 -28 10 -8
11 -18 5 -36 -7 -16 -6 -24 1 -24 7 0 9 -11 6 -30 -4 -16 -3 -30 2 -30 9 0 32
-91 33 -127 0 -13 4 -23 9 -23 5 0 9 -11 9 -25 0 -16 6 -25 15 -25 8 0 15 -9
15 -20 0 -15 7 -20 25 -20 18 0 23 -4 19 -15 -5 -11 1 -15 24 -15 26 0 29 -3
25 -21 -5 -17 -2 -20 18 -17 16 2 24 -2 24 -12 0 -8 13 -18 30 -21 17 -4 26
-7 20 -8 -5 -1 -4 -5 4 -10 23 -15 52 -1 45 21 -4 13 -2 18 4 14 16 -10 44 5
38 20 -3 8 1 14 9 14 12 0 15 18 15 90 0 67 3 90 13 90 7 0 100 -9 207 -20
107 -11 198 -20 202 -20 4 0 8 13 8 29 0 34 0 34 -195 51 -66 6 -137 13 -157
16 l-38 6 0 74 0 74 43 0 c23 0 116 -7 207 -15 198 -18 190 -17 190 -5 0 6 -6
10 -13 10 -8 0 -14 7 -14 15 0 8 6 15 14 15 23 0 14 16 -9 17 -126 8 -348 25
-365 29 -21 4 -23 10 -23 74 0 38 3 71 8 73 4 3 90 -1 192 -9 176 -13 290 -16
244 -7 -16 3 -20 9 -17 24 3 10 13 19 22 20 48 3 -66 17 -186 23 -76 4 -153
10 -170 13 l-33 5 0 81 0 80 138 -7 c75 -3 180 -9 232 -12 83 -5 93 -3 78 9
-10 8 -18 23 -18 35 0 19 -8 20 -152 27 -84 4 -182 8 -218 8 l-65 2 3 94 3 94
225 -6 c146 -5 224 -3 224 3 0 6 -4 10 -10 10 -14 0 -12 38 3 43 20 7 -251 19
-356 15 -78 -2 -96 0 -92 10 3 8 5 45 5 83 l0 69 238 1 c130 1 226 4 213 6
-20 4 -22 9 -17 33 l5 29 -212 3 c-117 2 -218 -1 -225 -6 -10 -7 -12 10 -10
85 l3 94 230 5 c127 3 225 8 219 12 -6 4 -9 19 -6 33 l4 26 -226 -3 -227 -3 3
105 3 105 217 6 c120 3 221 9 225 13 4 4 -1 14 -12 22 -11 8 -20 20 -20 27 0
9 -48 11 -195 9 -107 -2 -202 -5 -210 -8 -13 -3 -14 9 -12 80 l3 83 76 7 c42
3 106 6 142 6 119 0 203 11 197 26 -3 8 -1 14 3 14 5 0 12 -6 14 -12 4 -9 6
-10 6 -1 1 6 -6 18 -14 27 -8 8 -15 20 -15 26 0 7 -10 10 -27 6 -16 -3 -104
-8 -198 -11 -93 -4 -174 -11 -180 -15 -7 -6 -9 26 -7 93 2 56 5 103 7 105 2 2
84 8 182 14 119 7 185 15 201 24 12 9 22 10 22 4 0 -5 6 -10 14 -10 20 0 27
40 10 57 -12 13 -14 12 -14 -6 0 -14 -5 -19 -16 -14 -8 3 -13 12 -10 19 4 11
-5 14 -37 14 -50 0 -300 -18 -337 -24 l-25 -4 0 101 c0 83 3 102 15 104 8 1
91 9 184 18 93 8 174 19 180 25 6 6 15 5 25 -3 12 -10 14 -9 8 7 -6 15 -5 17
7 7 11 -10 13 -6 12 21 -1 27 -6 33 -26 35 -25 2 -334 -24 -380 -31 l-25 -4 0
85 c0 49 4 88 10 90 6 1 91 12 189 22 116 13 182 25 188 33 8 10 11 10 15 1 6
-16 33 -17 33 -2 0 6 -9 13 -20 16 -23 6 -28 32 -6 29 19 -1 15 18 -4 21 -18
3 -379 -35 -398 -42 -10 -4 -12 16 -10 88 l3 92 95 12 c52 6 139 17 193 23 78
10 97 15 97 29 0 14 2 14 10 1 14 -22 21 -7 14 28 l-6 32 -89 -5 c-74 -3 -225
-23 -304 -40 -19 -4 -20 0 -17 65 3 54 7 70 20 74 9 3 94 15 187 27 99 13 177
28 186 36 14 12 18 12 22 1 3 -7 6 -1 6 14 1 14 4 33 7 41 4 12 0 14 -15 10
-11 -3 -18 -9 -15 -14 9 -15 -18 -10 -30 5 -9 11 -27 12 -90 5 -44 -5 -89 -11
-100 -13 -12 -2 -50 -9 -86 -16 -36 -6 -72 -15 -80 -19 -13 -7 -15 1 -12 63 2
39 7 74 11 77 3 4 85 18 181 33 96 15 190 29 207 33 l33 5 -23 24 c-23 25 -43
32 -31 12 4 -7 -4 -3 -18 10 -24 21 -29 22 -89 13 -35 -5 -89 -8 -119 -5 -30
3 -75 6 -98 7 -29 2 -47 8 -53 20 -8 14 -6 17 11 17 11 0 20 7 20 16 0 8 -4
13 -9 10 -14 -9 -41 4 -41 20 0 17 -12 18 -27 3 -14 -14 -36 -1 -29 17 3 8 -1
14 -9 14 -8 0 -15 -4 -15 -10 0 -17 -27 -11 -34 7 -5 12 -10 13 -18 5 -6 -6
-18 -8 -27 -4 -9 5 -32 7 -51 6 -19 -1 -48 -2 -63 -3 -22 -1 -31 -8 -44 -38
-13 -33 -14 -49 -3 -120 10 -66 16 -83 31 -88 14 -5 19 -14 17 -37 -1 -18 3
-33 10 -36 14 -4 16 -38 2 -47 -16 -10 -11 -40 10 -63 19 -20 20 -26 9 -62 -7
-22 -17 -40 -23 -40 -6 0 -3 -5 7 -11 12 -7 15 -18 11 -37 -11 -50 -27 -83
-45 -93 -11 -5 -19 -17 -19 -25 0 -9 -6 -14 -12 -11 -7 2 -22 1 -33 -3 -11 -4
-31 -3 -43 1 -29 11 -234 15 -250 5 -17 -10 -52 12 -52 32 0 10 -13 22 -31 29
-18 7 -28 17 -24 23 3 6 10 8 15 5 5 -3 11 -1 15 4 3 6 -4 15 -16 22 -16 8
-23 8 -29 -1 -6 -9 -13 -9 -29 -1 -25 14 -28 31 -3 29 39 -3 62 3 62 16 0 9
-14 13 -50 12 -34 -1 -51 2 -55 12 -9 25 5 32 50 25 31 -4 45 -2 45 6 0 6 -8
11 -18 11 -19 0 -42 18 -42 32 0 4 9 8 20 8 31 0 24 17 -10 24 -37 7 -41 36
-6 36 14 0 28 5 32 12 5 8 2 9 -9 5 -39 -15 -65 22 -30 42 12 6 -7 9 -63 9
-94 -1 -120 6 -127 32 -3 11 -2 19 2 18 3 0 24 0 46 1 26 1 35 4 27 10 -8 4
-32 7 -54 6 -27 -2 -41 2 -45 12 -11 27 41 40 75 19 7 -4 22 -4 35 0 12 4 41
6 65 5 23 -1 42 2 42 8 0 6 -37 11 -92 11 -51 1 -103 2 -115 2 -12 0 -23 8
-26 18 -4 16 2 18 65 15 59 -3 68 -2 57 11 -7 9 -31 14 -69 14 -48 0 -58 3
-63 19 -4 18 1 19 69 15 46 -3 74 0 74 6 0 5 -16 11 -35 11 -19 1 -54 2 -77 3
-25 1 -43 6 -46 15 -9 27 35 35 81 16 10 -4 37 -2 60 6 23 7 50 12 60 11 10
-1 16 2 13 6 -3 5 -51 7 -108 6 -70 -2 -105 1 -110 9 -11 17 -10 29 1 22 5 -3
12 -1 15 3 6 10 36 9 54 -2 10 -6 83 -1 125 10 4 1 17 2 29 3 12 0 19 4 15 7
-3 3 -57 6 -119 6 -105 0 -127 5 -128 29 0 3 44 6 98 6 140 0 183 5 179 17 -3
6 -10 10 -17 8 -7 -2 -65 -3 -128 -3 -111 0 -131 6 -132 33 0 4 28 5 63 3 74
-6 257 5 257 14 0 4 -68 8 -152 9 -145 2 -167 6 -168 33 0 3 61 4 135 3 132
-3 193 6 180 26 -4 6 -16 8 -28 4 -38 -12 -257 -8 -270 5 -17 17 8 31 47 25
34 -5 206 -4 246 1 14 2 28 4 33 4 4 1 7 5 7 10 0 13 -44 22 -48 10 -4 -9
-262 -13 -262 -4 0 2 -2 10 -5 17 -5 12 18 14 132 12 163 -2 203 3 203 23 0
12 -8 14 -32 9 -18 -3 -88 -8 -155 -10 -112 -3 -122 -2 -126 15 -3 11 0 19 6
20 7 0 24 2 39 4 15 2 30 0 33 -5 5 -8 58 -7 283 4 12 1 22 7 22 14 0 11 -12
13 -52 8 -29 -3 -106 -7 -171 -9 -107 -3 -119 -2 -128 15 -8 14 -6 18 8 19 10
1 22 1 27 0 5 -1 12 3 16 9 4 6 17 12 28 13 12 1 22 4 22 8 0 3 96 7 213 9
243 3 270 5 283 12 9 6 547 3 599 -3 17 -2 33 -8 36 -13 4 -5 18 -8 33 -8 14
0 26 -4 26 -9 0 -5 14 -9 31 -9 20 0 28 -4 23 -11 -5 -8 3 -10 25 -7 21 3 31
0 31 -9 0 -8 12 -13 31 -13 17 0 28 -4 24 -10 -4 -6 7 -10 24 -10 21 0 31 -5
31 -15 0 -9 9 -15 25 -15 16 0 25 -6 25 -15 0 -9 9 -15 25 -15 16 0 25 -6 25
-15 0 -9 9 -15 24 -15 13 0 27 -7 30 -16 4 -10 14 -14 26 -11 13 3 20 0 20 -9
0 -9 11 -14 30 -14 22 0 28 -4 24 -15 -5 -11 1 -15 25 -15 23 0 29 -4 25 -15
-5 -11 1 -15 25 -15 17 0 30 -3 30 -7 -4 -23 3 -33 21 -33 11 0 20 -7 20 -15
0 -9 9 -15 25 -15 16 0 25 -6 25 -15 0 -9 9 -15 24 -15 13 0 27 -7 30 -16 4
-11 13 -14 30 -10 18 4 23 2 22 -12 -1 -12 6 -17 22 -16 15 0 22 -5 22 -18 0
-14 6 -19 23 -16 19 3 22 9 23 48 1 56 -7 54 230 45 l181 -7 -5 -24 c-2 -14 0
-24 7 -24 6 0 11 -7 11 -15 0 -8 -5 -15 -11 -15 -6 0 -9 -7 -5 -15 5 -13 -5
-15 -72 -10 -42 3 -125 8 -184 11 -60 3 -106 10 -102 15 3 5 0 9 -5 9 -6 0
-11 -4 -11 -10 0 -5 -7 -10 -15 -10 -10 0 -15 -10 -15 -30 0 -26 4 -30 28 -31
150 -5 377 -26 375 -34 -1 -5 -3 -17 -6 -25 -2 -8 -2 -12 0 -7 12 20 22 2 20
-38 l-2 -45 -65 6 c-36 3 -76 8 -90 11 -32 7 -107 13 -190 14 -57 1 -65 -1
-68 -17 -1 -11 1 -24 5 -30 5 -6 92 -19 203 -30 114 -11 194 -23 193 -29 -1
-5 4 -16 10 -23 8 -10 8 -15 -1 -21 -9 -5 -6 -13 9 -29 11 -12 24 -20 30 -17
5 4 9 1 9 -4 0 -6 7 -11 15 -11 8 0 15 -3 15 -7 0 -5 23 -9 51 -10 28 -1 57
-8 65 -14 11 -9 14 -9 14 1 0 7 7 10 17 6 15 -6 15 -5 -1 13 -16 18 -16 19 1
17 13 -1 18 5 16 24 -1 14 0 18 3 8 3 -10 10 -18 15 -18 13 0 11 24 -3 38 -6
6 -11 32 -11 57 0 25 -3 45 -7 45 -3 0 -5 12 -5 28 1 16 -7 34 -19 44 l-21 18
23 0 c15 0 21 -4 16 -12 -5 -7 0 -9 14 -6 17 5 22 1 25 -21 3 -20 4 -17 6 11
1 31 -2 36 -16 31 -10 -4 -14 -2 -9 5 3 6 2 13 -4 17 -5 3 -10 1 -10 -5 0 -6
-4 -9 -10 -5 -5 3 -6 13 -3 22 4 10 2 14 -4 10 -8 -5 -7 1 0 18 8 17 18 23 30
19 28 -9 21 25 -8 36 -25 9 -25 11 -9 35 9 14 13 25 8 25 -4 0 -3 5 4 12 7 7
12 17 12 22 0 6 -5 4 -10 -4 -8 -13 -10 -12 -10 4 0 15 -5 17 -27 12 -17 -4
-23 -3 -15 2 14 10 12 53 -3 64 -5 4 0 8 12 8 12 0 25 4 28 10 4 6 17 5 35 -5
24 -12 29 -13 34 0 3 8 0 12 -7 10 -18 -7 -50 22 -44 39 4 9 2 18 -4 21 -5 4
-7 11 -4 16 4 5 -3 9 -15 9 -25 0 -24 30 2 45 11 6 14 15 9 23 -6 9 -14 6 -33
-13 -25 -24 -26 -25 -31 -5 -3 11 -1 18 3 15 15 -9 41 7 35 22 -3 10 -1 13 9
10 15 -6 30 18 21 33 -3 5 -18 7 -33 4 l-27 -5 29 26 c16 14 24 25 18 25 -5 0
-8 9 -5 20 4 14 1 20 -8 18 -8 -2 -13 4 -12 15 1 13 -4 17 -15 12 -13 -5 -13
-3 2 14 13 14 14 20 4 24 -8 3 -2 9 15 16 15 6 27 13 27 15 0 3 -7 3 -15 0
-10 -4 -15 0 -16 12 -1 11 -3 30 -4 43 -1 15 6 31 18 41 11 9 17 22 13 28 -12
19 -25 14 -19 -8 3 -11 0 -20 -6 -20 -11 0 -15 19 -12 57 1 17 -2 21 -14 17
-17 -7 -55 22 -55 40 1 6 9 0 20 -13 17 -19 21 -21 26 -7 3 9 12 16 20 16 18
0 18 16 0 23 -10 4 -12 18 -8 54 2 26 9 49 13 51 5 2 3 13 -4 24 -9 16 -9 22
1 25 26 10 12 32 -18 28 -16 -2 -32 1 -36 6 -3 6 0 10 7 8 37 -5 42 0 24 27
-9 14 -14 28 -11 31 3 3 11 -6 17 -21 15 -33 25 -33 31 -1 3 13 2 22 -2 20 -4
-3 -13 1 -19 9 -8 10 -8 16 4 26 12 10 12 15 -2 36 -14 22 -14 26 2 50 14 21
15 28 4 35 -7 4 -19 3 -26 -3 -9 -7 -13 -7 -13 1 0 6 8 15 18 18 18 7 32 22
32 37 0 5 -7 2 -17 -5 -15 -13 -15 -12 -5 7 9 18 10 36 3 88 0 4 -7 6 -14 3
-10 -4 -13 2 -9 18 3 16 9 21 22 18 15 -4 18 -1 13 17 -3 12 -11 24 -18 27 -8
2 -12 19 -11 39 1 19 -2 34 -6 34 -5 0 -8 7 -8 15 0 27 -38 55 -74 55 -38 0
-57 16 -32 26 18 7 23 64 6 64 -5 0 -10 -4 -10 -9 0 -5 -7 -12 -16 -15 -15 -6
-15 -4 -3 10 12 15 12 16 -6 11 -11 -3 -56 -16 -100 -27 -44 -12 -102 -28
-129 -36 -26 -8 -57 -14 -67 -14 -10 0 -20 -4 -23 -9 -4 -5 -29 -15 -58 -22
-33 -9 -53 -20 -56 -31 -6 -24 -18 -23 -25 1 -3 14 -1 18 9 14 8 -3 14 1 14
11 0 9 -4 16 -9 16 -5 0 -11 9 -14 19 -3 14 -1 18 9 14 8 -3 14 1 14 11 0 9
-4 16 -10 16 -5 0 -10 6 -10 14 0 9 17 16 50 21 59 8 59 23 -1 20 -27 -2 -42
2 -46 12 -3 8 -3 16 -1 18 9 10 69 12 74 4 6 -10 176 -3 209 8 11 3 45 7 75 8
102 4 110 5 110 15 0 6 -13 9 -30 8 -16 -1 -30 -6 -30 -10 0 -5 -8 -5 -17 0
-10 5 -43 7 -73 6 -30 -2 -113 -5 -185 -6 -123 -3 -130 -2 -133 17 -2 11 -1
17 3 13 3 -3 20 -2 36 2 16 5 31 5 34 0 5 -8 96 -7 308 2 31 1 57 6 57 10 0 4
5 8 10 8 6 0 10 -4 10 -9z m-34 -224 c21 8 17 -15 -5 -27 -13 -6 -17 -16 -14
-31 4 -16 8 -17 14 -7 6 9 9 9 9 1 0 -7 -9 -17 -20 -23 -11 -6 -20 -8 -20 -4
0 3 -6 2 -13 -4 -7 -6 -51 -20 -98 -31 -46 -11 -122 -31 -169 -44 -70 -20 -88
-22 -98 -11 -14 16 -16 48 -2 39 6 -3 10 1 10 9 0 9 -4 16 -9 16 -5 0 -11 8
-14 19 -3 13 0 17 12 15 9 -2 102 20 206 50 141 39 191 50 193 40 2 -7 10 -10
18 -7z m109 -17 c-3 -5 -11 -10 -16 -10 -6 0 -7 5 -4 10 3 6 11 10 16 10 6 0
7 -4 4 -10z m-449 -28 c-3 -6 -14 -9 -24 -8 -9 2 -20 -2 -24 -8 -5 -7 -8 -5
-8 6 0 11 10 18 28 20 32 4 36 3 28 -10z m299 -132 c-3 -5 1 -10 9 -10 9 0 16
6 17 13 0 9 2 9 6 -1 3 -7 -5 -25 -18 -39 -17 -18 -20 -27 -11 -30 6 -3 12 -9
12 -15 0 -6 -7 -8 -15 -4 -9 3 -15 0 -15 -10 0 -17 -31 -30 -87 -38 -21 -3
-51 -8 -68 -11 -16 -3 -37 -6 -45 -6 -8 -1 -28 -7 -45 -14 -49 -22 -105 -23
-119 -2 -8 13 -8 19 2 26 12 7 12 12 1 29 -7 12 -11 23 -9 26 5 4 365 94 383
95 5 1 5 -3 2 -9z m-365 -46 c0 -8 -4 -12 -10 -9 -5 3 -10 13 -10 21 0 8 5 12
10 9 6 -3 10 -13 10 -21z m66 7 c-4 -6 -14 -7 -23 -4 -15 6 -14 7 3 13 22 9
29 6 20 -9z m-49 -13 c-3 -8 -6 -5 -6 6 -1 11 2 17 5 13 3 -3 4 -12 1 -19z
m353 -143 c0 -8 -6 -20 -13 -27 -15 -13 -11 -51 4 -42 11 7 11 -7 0 -25 -5 -7
-13 -11 -19 -7 -6 3 -12 2 -14 -4 -3 -9 -143 -34 -183 -32 -10 1 -24 -3 -30
-8 -5 -4 -33 -12 -60 -17 -53 -10 -64 -6 -78 31 -5 14 -4 17 8 12 9 -3 15 0
15 9 0 8 -4 15 -9 15 -5 0 -11 9 -14 20 -3 11 -2 18 1 16 4 -2 88 14 187 34
212 45 205 44 205 25z m-370 -21 c0 -21 -17 -17 -23 5 -3 14 -1 18 9 14 8 -3
14 -11 14 -19z m70 7 c0 -5 -13 -11 -30 -13 -16 -3 -30 -1 -30 3 0 7 10 10 53
18 4 0 7 -3 7 -8z m495 -61 c3 -5 1 -10 -4 -10 -6 0 -11 5 -11 10 0 6 2 10 4
10 3 0 8 -4 11 -10z m-5 -40 c0 -5 -4 -10 -10 -10 -5 0 -10 5 -10 10 0 6 5 10
10 10 6 0 10 -4 10 -10z m-55 -40 c3 -5 1 -10 -4 -10 -6 0 -11 5 -11 10 0 6 2
10 4 10 3 0 8 -4 11 -10z m-507 -43 c5 -24 -15 -21 -21 4 -3 13 -1 19 6 16 7
-2 13 -11 15 -20z m362 14 c0 -5 -4 -21 -10 -36 -7 -20 -7 -27 4 -31 8 -3 17
-12 20 -20 3 -9 1 -12 -5 -9 -5 4 -15 2 -22 -3 -7 -5 -37 -13 -67 -16 -119
-14 -266 -39 -276 -47 -7 -6 -9 5 -8 31 1 22 -2 43 -7 46 -13 8 -11 30 4 32 6
1 86 15 177 31 192 34 190 34 190 22z m-343 -23 c-3 -8 -6 -5 -6 6 -1 11 2 17
5 13 3 -3 4 -12 1 -19z m53 12 c0 -5 -9 -10 -21 -10 -11 0 -17 5 -14 10 3 6
13 10 21 10 8 0 14 -4 14 -10z m510 -40 c12 -7 10 -9 -8 -7 -12 0 -22 5 -22 9
0 11 12 10 30 -2z m-510 -130 c0 -6 -11 -8 -24 -6 -14 2 -27 -1 -30 -7 -2 -7
-5 -4 -5 6 -1 12 7 17 29 17 17 0 30 -5 30 -10z m282 -4 c12 -9 16 -21 12 -37
-4 -13 -7 -34 -8 -47 -1 -27 -9 -29 -128 -36 -48 -3 -117 -10 -153 -16 -36 -6
-70 -8 -74 -5 -13 8 -20 45 -9 45 6 0 8 12 5 30 -4 17 -5 30 -4 31 1 0 76 11
167 23 91 13 167 24 170 24 3 1 13 -5 22 -12z m213 -115 c2 -11 7 -26 10 -31
3 -5 0 -7 -9 -4 -9 3 -14 18 -14 35 1 33 6 33 13 0z m-565 -61 c0 -11 -2 -20
-4 -20 -2 0 -6 9 -9 20 -3 11 -1 20 4 20 5 0 9 -9 9 -20z m67 3 c-10 -9 -57
-10 -57 -1 0 4 14 8 32 8 17 0 28 -3 25 -7z m515 -11 c-7 -2 -9 -9 -6 -14 4
-7 2 -8 -4 -4 -6 4 -9 13 -6 21 4 8 11 12 17 8 8 -5 7 -8 -1 -11z m-229 -44
c-1 -39 1 -46 15 -41 14 5 15 3 5 -7 -12 -13 -58 -17 -327 -32 -42 -3 -49 0
-57 20 -6 15 -5 21 1 17 13 -8 13 11 0 35 -9 16 -7 20 12 25 33 8 288 33 323
31 28 -1 29 -3 28 -48z m252 2 c3 -5 2 -10 -4 -10 -5 0 -13 5 -16 10 -3 6 -2
10 4 10 5 0 13 -4 16 -10z m-15 -55 c0 -14 -4 -25 -10 -25 -11 0 -14 33 -3 43
11 11 13 8 13 -18z m-592 -76 c-3 -8 -7 -3 -11 10 -4 17 -3 21 5 13 5 -5 8
-16 6 -23z m47 19 c14 2 25 0 25 -5 0 -5 -13 -10 -30 -10 -21 0 -30 5 -29 16
0 9 3 11 5 5 3 -6 16 -9 29 -6z m320 -29 c-4 -6 1 -17 11 -24 15 -11 16 -14 4
-15 -13 0 -13 -1 0 -10 12 -8 12 -12 2 -18 -7 -5 -10 -16 -6 -25 5 -15 -2 -17
-47 -18 -30 0 -116 -2 -191 -4 -117 -4 -138 -3 -139 10 -3 52 -2 86 3 90 3 3
66 10 139 14 205 12 231 12 224 0z m240 -98 c3 -5 1 -12 -4 -15 -5 -3 -11 1
-15 9 -6 16 9 21 19 6z m-588 -63 c-3 -8 -6 -5 -6 6 -1 11 2 17 5 13 3 -3 4
-12 1 -19z m48 2 c-3 -5 -12 -7 -20 -3 -21 7 -19 13 6 13 11 0 18 -4 14 -10z
m335 -35 c0 -8 6 -15 13 -16 6 0 3 -4 -8 -9 -18 -8 -18 -9 -2 -9 17 -1 17 -3
3 -23 -20 -28 -20 -39 -1 -32 8 4 15 2 15 -4 0 -6 -75 -10 -209 -10 l-209 0
-4 50 c-1 27 1 53 7 59 5 5 94 9 202 9 165 0 193 -2 193 -15z m220 -71 c0 -8
-4 -12 -10 -9 -5 3 -10 10 -10 16 0 5 5 9 10 9 6 0 10 -7 10 -16z m-603 -66
c-3 -8 -6 -5 -6 6 -1 11 2 17 5 13 3 -3 4 -12 1 -19z m53 2 c0 -13 -11 -13
-30 0 -12 8 -11 10 8 10 12 0 22 -4 22 -10z m360 -60 c0 -5 -5 -10 -11 -10 -5
0 -7 5 -4 10 3 6 8 10 11 10 2 0 4 -4 4 -10z m-376 -96 c9 -3 14 -10 11 -15
-7 -10 -35 0 -35 12 0 11 3 11 24 3z m586 -4 c0 -5 -4 -10 -10 -10 -5 0 -10 5
-10 10 0 6 5 10 10 10 6 0 10 -4 10 -10z m-1710 -80 c3 -1 -15 -8 -40 -15 -49
-15 -65 -11 -37 10 15 11 47 13 77 5z m-46 -61 c9 13 46 15 46 2 0 -6 -8 -9
-17 -9 -10 0 -26 -3 -35 -7 -14 -5 -18 -2 -18 11 0 15 2 16 9 5 6 -9 11 -10
15 -2z m1161 -31 c14 2 25 0 25 -5 0 -5 -13 -10 -30 -10 -21 0 -30 5 -29 16 0
9 3 11 5 5 3 -6 16 -9 29 -6z m575 -2 c0 -3 -4 -8 -10 -11 -5 -3 -10 -1 -10 4
0 6 5 11 10 11 6 0 10 -2 10 -4z m20 -46 c0 -5 -5 -10 -11 -10 -5 0 -7 5 -4
10 3 6 8 10 11 10 2 0 4 -4 4 -10z m-65 -20 c3 -5 1 -10 -4 -10 -6 0 -11 5
-11 10 0 6 2 10 4 10 3 0 8 -4 11 -10z m-2598 -36 c3 -8 1 -20 -6 -27 -8 -8
-15 -6 -25 8 -8 11 -12 23 -10 27 9 14 34 9 41 -8z m10 -59 c3 -9 3 -19 -1
-22 -7 -7 -36 16 -36 28 0 15 30 10 37 -6z m897 -26 c9 15 49 14 44 0 -2 -7
-18 -13 -36 -14 -24 -2 -32 1 -32 14 0 13 2 13 9 2 6 -9 11 -10 15 -2z m-916
-15 c18 -8 32 -22 32 -30 0 -20 -6 -18 -42 16 -35 34 -34 36 10 14z m-1 -50
c-3 -3 -12 -4 -19 -1 -8 3 -5 6 6 6 11 1 17 -2 13 -5z m10 -60 c-3 -3 -12 -4
-19 -1 -8 3 -5 6 6 6 11 1 17 -2 13 -5z m33 -54 c8 -5 12 -11 9 -14 -3 -3 -14
1 -25 9 -21 16 -8 20 16 5z m920 -39 c0 -6 -4 -13 -10 -16 -5 -3 -10 -1 -10 6
0 10 -3 10 -12 1 -17 -17 -38 -15 -38 3 0 10 11 15 35 15 19 0 35 -4 35 -9z
m1103 -116 c16 6 44 -12 34 -21 -4 -4 -12 -3 -18 3 -6 6 -18 9 -25 6 -9 -3
-14 2 -13 13 0 11 3 14 5 7 3 -7 11 -10 17 -8z m477 5 c0 -5 -5 -10 -11 -10
-5 0 -7 5 -4 10 3 6 8 10 11 10 2 0 4 -4 4 -10z m110 -40 c0 -5 -2 -10 -4 -10
-3 0 -8 5 -11 10 -3 6 -1 10 4 10 6 0 11 -4 11 -10z m-420 -35 c214 -46 203
-42 197 -71 -3 -20 -2 -22 14 -13 17 9 18 7 8 -15 -7 -16 -17 -22 -26 -19 -12
5 -14 1 -8 -15 3 -12 4 -22 1 -22 -2 0 -80 18 -173 40 -92 23 -178 43 -190 46
-20 4 -23 11 -23 54 0 41 3 50 18 50 9 0 91 -16 182 -35z m450 31 c0 -3 -4 -8
-10 -11 -5 -3 -10 -1 -10 4 0 6 5 11 10 11 6 0 10 -2 10 -4z m-40 -27 c0 -6
-4 -7 -10 -4 -5 3 -10 11 -10 16 0 6 5 7 10 4 6 -3 10 -11 10 -16z m-1728 -91
c-9 -9 -12 -7 -12 12 0 19 3 21 12 12 9 -9 9 -15 0 -24z m48 7 c-7 -8 -14 -15
-15 -15 -2 0 -5 7 -9 15 -4 10 1 15 16 15 17 0 18 -2 8 -15z m1087 -27 c-3 -8
-6 -5 -6 6 -1 11 2 17 5 13 3 -3 4 -12 1 -19z m43 2 c8 -5 11 -12 7 -16 -4 -4
-15 0 -24 9 -18 18 -8 23 17 7z m140 -70 c195 -48 213 -55 197 -81 -9 -14 -7
-22 8 -39 18 -20 18 -21 -1 -35 -20 -15 -35 -13 -129 16 -101 31 -157 47 -217
60 l-58 12 0 59 c0 52 2 59 18 54 9 -3 91 -24 182 -46z m402 -12 c-7 -7 -12
-8 -12 -2 0 14 12 26 19 19 2 -3 -1 -11 -7 -17z m-537 -98 c8 -13 -5 -13 -25
0 -13 8 -13 10 2 10 9 0 20 -4 23 -10z m161 -82 c94 -27 177 -54 184 -58 9 -6
9 -12 1 -29 -6 -11 -9 -32 -5 -45 5 -22 3 -24 -23 -22 -15 2 -102 26 -192 55
-91 28 -171 51 -178 51 -9 0 -13 17 -13 56 l0 56 28 -7 c15 -3 104 -29 198
-57z m-1336 31 c0 -5 -4 -9 -10 -9 -5 0 -10 7 -10 16 0 8 5 12 10 9 6 -3 10
-10 10 -16z m50 12 c0 -11 -26 -22 -34 -14 -12 12 -5 23 14 23 11 0 20 -4 20
-9z m1700 -70 c0 -6 -4 -12 -8 -15 -5 -3 -9 1 -9 9 0 8 4 15 9 15 4 0 8 -4 8
-9z m-623 -53 c-3 -8 -6 -5 -6 6 -1 11 2 17 5 13 3 -3 4 -12 1 -19z m48 -9
c11 -17 2 -18 -19 -3 -17 12 -17 14 -4 14 9 0 20 -5 23 -11z m143 -81 c165
-53 193 -65 189 -80 -4 -12 0 -18 11 -18 12 0 13 -3 4 -12 -17 -17 -15 -38 3
-38 24 0 17 -19 -9 -26 -22 -5 -87 13 -163 46 -51 22 -70 29 -103 39 -19 6
-59 18 -87 27 l-53 16 0 54 c0 30 3 54 8 54 4 0 94 -28 200 -62z m-1331 -80
c-3 -7 -5 -2 -5 12 0 14 2 19 5 13 2 -7 2 -19 0 -25z m63 12 c0 -5 -9 -10 -20
-10 -11 0 -20 5 -20 10 0 6 9 10 20 10 11 0 20 -4 20 -10z m1105 -18 c22 -4
31 -10 24 -16 -11 -11 -59 8 -59 23 0 9 3 12 8 6 4 -5 16 -12 27 -13z m580
-12 c-3 -5 -11 -10 -16 -10 -6 0 -7 5 -4 10 3 6 11 10 16 10 6 0 7 -4 4 -10z
m-410 -87 c99 -36 184 -69 190 -74 6 -6 5 -16 -3 -29 -10 -17 -10 -20 5 -20
15 0 14 -3 -4 -15 -13 -9 -20 -22 -17 -30 4 -8 4 -15 0 -15 -16 0 -123 45
-138 58 -10 8 -18 12 -18 9 0 -4 -26 4 -57 17 -32 13 -84 32 -115 42 l-58 18
0 59 c0 52 2 58 18 52 9 -4 98 -36 197 -72z m1950 67 c3 -5 1 -10 -4 -10 -6 0
-11 5 -11 10 0 6 2 10 4 10 3 0 8 -4 11 -10z m-55 -80 c0 -5 -4 -10 -10 -10
-5 0 -10 5 -10 10 0 6 5 10 10 10 6 0 10 -4 10 -10z m-350 -10 c0 -5 -2 -10
-4 -10 -3 0 -8 5 -11 10 -3 6 -1 10 4 10 6 0 11 -4 11 -10z m-25 -10 c3 -5 2
-10 -4 -10 -5 0 -13 5 -16 10 -3 6 -2 10 4 10 5 0 13 -4 16 -10z m-1675 -50
c8 -5 11 -12 7 -16 -4 -4 -15 0 -24 9 -18 18 -8 23 17 7z m141 -95 c163 -66
237 -105 201 -105 -6 0 -9 -7 -6 -15 4 -8 1 -15 -6 -15 -6 0 -9 -4 -5 -10 3
-5 13 -6 23 -3 15 6 15 5 3 -11 -18 -21 -24 -73 -11 -81 27 -17 0 -70 -29 -55
-9 4 -96 43 -193 87 l-178 78 0 103 c0 56 4 102 9 102 4 0 91 -34 192 -75z
m409 60 c-7 -9 -15 -13 -19 -10 -3 3 1 10 9 15 21 14 24 12 10 -5z m-1733 -47
c-3 -8 -6 -5 -6 6 -1 11 2 17 5 13 3 -3 4 -12 1 -19z m63 10 c0 -4 -12 -8 -26
-8 -14 0 -23 4 -20 8 2 4 14 8 25 8 12 0 21 -4 21 -8z m1678 -123 c-3 -3 -9 2
-12 12 -6 14 -5 15 5 6 7 -7 10 -15 7 -18z m3 -52 c13 -15 12 -15 -8 -4 -24
12 -29 21 -14 21 5 0 15 -7 22 -17z m-591 -20 c0 13 40 -13 40 -25 0 -9 -3 -9
-12 0 -7 7 -20 12 -30 12 -11 0 -18 7 -18 18 0 14 2 15 10 2 5 -8 10 -11 10
-7z m1623 2 c-3 -9 -8 -14 -10 -11 -3 3 -2 9 2 15 9 16 15 13 8 -4z m-1027
-25 c0 -20 -7 -25 -19 -13 -4 3 -2 12 4 20 15 17 15 17 15 -7z m-1686 -20 c0
-4 -11 -7 -25 -7 -14 0 -25 5 -25 11 0 6 -5 4 -10 -4 -5 -8 -10 -10 -10 -4 0
6 2 13 5 16 7 7 65 -3 65 -12z m1272 -75 c135 -63 185 -91 181 -101 -3 -8 1
-21 8 -30 10 -13 10 -17 -1 -24 -7 -4 -10 -15 -7 -23 3 -8 3 -18 0 -21 -3 -3
-67 25 -142 63 -75 37 -162 80 -193 94 l-58 27 0 56 c0 41 3 55 13 51 6 -3 96
-44 199 -92z m208 -15 c0 -5 -2 -10 -4 -10 -3 0 -8 5 -11 10 -3 6 -1 10 4 10
6 0 11 -4 11 -10z m-354 -68 c-4 -3 -14 2 -24 12 -16 18 -16 18 6 6 13 -6 21
-14 18 -18z m123 -88 c167 -86 195 -103 187 -112 -3 -2 1 -10 8 -18 17 -16 13
-80 -4 -76 -7 1 -95 46 -196 98 l-184 96 0 49 c0 30 4 49 12 49 6 0 86 -39
177 -86z m377 40 c-4 -9 -9 -15 -11 -12 -3 3 -3 13 1 22 4 9 9 15 11 12 3 -3
3 -13 -1 -22z m26 -36 c-7 -7 -12 -8 -12 -2 0 14 12 26 19 19 2 -3 -1 -11 -7
-17z m48 -1 c0 -2 -10 -12 -21 -23 -22 -19 -22 -19 -8 4 12 19 29 30 29 19z
m-1740 -38 c0 -5 -4 -9 -10 -9 -5 0 -10 7 -10 16 0 8 5 12 10 9 6 -3 10 -10
10 -16z m42 -1 c-9 -9 -15 -9 -24 0 -9 9 -7 12 12 12 19 0 21 -3 12 -12z
m1075 -20 c-3 -8 -6 -5 -6 6 -1 11 2 17 5 13 3 -3 4 -12 1 -19z m49 -26 c-4
-3 -14 2 -24 12 -16 18 -16 18 6 6 13 -6 21 -14 18 -18z m1008 0 c3 -5 -1 -9
-9 -9 -8 0 -12 4 -9 9 3 4 7 8 9 8 2 0 6 -4 9 -8z m301 -21 c-6 -5 -25 10 -25
20 0 5 6 4 14 -3 8 -7 12 -15 11 -17z m-1177 -77 c97 -53 182 -101 188 -106 7
-5 10 -18 7 -28 -3 -11 0 -20 6 -20 6 0 11 -9 11 -20 0 -11 -5 -20 -11 -20 -8
0 -8 -4 0 -14 29 -35 -14 -17 -134 55 -71 43 -137 81 -145 85 -8 3 -39 18 -67
33 l-53 26 0 53 c0 29 5 52 10 52 6 0 91 -43 188 -96z m1052 -4 c0 -5 -5 -10
-11 -10 -5 0 -7 5 -4 10 3 6 8 10 11 10 2 0 4 -4 4 -10z m-45 -10 c3 -5 1 -10
-4 -10 -6 0 -11 5 -11 10 0 6 2 10 4 10 3 0 8 -4 11 -10z m-572 -47 c-15 -5
-53 15 -53 28 0 5 15 2 33 -7 17 -10 27 -19 20 -21z m-616 5 c-3 -8 -6 -5 -6
6 -1 11 2 17 5 13 3 -3 4 -12 1 -19z m1178 12 c3 -5 1 -10 -4 -10 -6 0 -11 5
-11 10 0 6 2 10 4 10 3 0 8 -4 11 -10z m-1135 -20 c8 -5 11 -12 8 -16 -4 -3
-14 1 -23 10 -18 17 -9 21 15 6z m540 -10 c0 -5 -5 -10 -11 -10 -5 0 -7 5 -4
10 3 6 8 10 11 10 2 0 4 -4 4 -10z m-397 -111 c105 -61 194 -113 197 -116 3
-2 -3 -9 -13 -14 -21 -12 -22 -29 -3 -29 24 0 29 -20 10 -41 -22 -24 -25 -23
-130 46 -45 30 -86 55 -90 55 -4 0 -15 6 -23 14 -9 8 -45 30 -81 48 l-65 34
-3 57 c-2 31 0 57 3 57 3 0 92 -50 198 -111z m-1308 92 c3 -5 1 -12 -5 -16 -5
-3 -10 1 -10 9 0 18 6 21 15 7z m2272 -13 c-3 -8 -6 -5 -6 6 -1 11 2 17 5 13
3 -3 4 -12 1 -19z m-2225 0 c-9 -9 -15 -9 -24 0 -9 9 -7 12 12 12 19 0 21 -3
12 -12z m1740 -80 c-7 -7 -12 -8 -12 -2 0 14 12 26 19 19 2 -3 -1 -11 -7 -17z
m-47 -29 c11 -17 -1 -21 -15 -4 -8 9 -8 15 -2 15 6 0 14 -5 17 -11z m61 -4
c18 -14 18 -15 -5 -11 -14 1 -27 8 -29 14 -5 16 10 15 34 -3z m-626 -35 c0
-14 -9 -12 -26 4 -20 21 -17 28 6 16 11 -6 20 -15 20 -20z m530 11 c0 -5 -7
-14 -15 -21 -16 -14 -18 -10 -9 14 6 17 24 22 24 7z m-399 -125 l184 -113 0
-54 c-1 -30 -5 -62 -9 -71 -6 -14 -4 -18 10 -18 14 0 15 -3 7 -11 -9 -9 -59
19 -202 112 l-191 124 0 73 c0 39 4 72 9 72 5 0 91 -51 192 -114z m469 108 c0
-7 -27 -34 -35 -34 -3 0 -1 9 5 20 10 18 30 28 30 14z m-1783 -76 c-3 -8 -6
-5 -6 6 -1 11 2 17 5 13 3 -3 4 -12 1 -19z m55 0 c-9 -9 -15 -9 -24 0 -9 9 -7
12 12 12 19 0 21 -3 12 -12z m1743 -28 c-3 -5 -10 -10 -16 -10 -5 0 -9 5 -9
10 0 6 7 10 16 10 8 0 12 -4 9 -10z m845 -40 c0 -5 -4 -10 -10 -10 -5 0 -10 5
-10 10 0 6 5 10 10 10 6 0 10 -4 10 -10z m-1513 -42 c-3 -8 -6 -5 -6 6 -1 11
2 17 5 13 3 -3 4 -12 1 -19z m53 -28 c0 -17 -15 -11 -28 11 -12 19 -11 19 8 9
11 -6 20 -15 20 -20z m154 -135 c157 -104 166 -112 164 -140 -2 -35 10 -77 26
-88 6 -5 0 -5 -14 -1 -26 7 -132 74 -162 103 -20 19 -86 64 -175 121 l-63 40
0 56 0 56 29 -19 c16 -10 103 -67 195 -128z m1239 61 c-3 -5 -12 2 -19 15 -7
13 -10 28 -7 33 3 5 12 -2 19 -15 7 -13 10 -28 7 -33z m-853 4 c0 -5 -4 -10
-10 -10 -5 0 -10 5 -10 10 0 6 5 10 10 10 6 0 10 -4 10 -10z m880 -10 c0 -5
-5 -10 -11 -10 -5 0 -7 5 -4 10 3 6 8 10 11 10 2 0 4 -4 4 -10z m-2603 -32
c-3 -8 -6 -5 -6 6 -1 11 2 17 5 13 3 -3 4 -12 1 -19z m63 3 c0 -5 -11 -8 -25
-8 -14 0 -25 3 -25 8 0 5 11 9 25 9 14 0 25 -4 25 -9z m2540 -12 c0 -5 4 -8 9
-5 5 4 7 -4 4 -15 -6 -21 -7 -21 -20 -4 -16 22 -17 35 -3 35 6 0 10 -5 10 -11z
m-1420 -59 c0 -15 -5 -12 -26 11 -19 22 -19 22 4 10 12 -6 22 -16 22 -21z
m1461 -3 c-10 -9 -11 -8 -5 6 3 10 9 15 12 12 3 -3 0 -11 -7 -18z m-1353 -103
c171 -119 245 -185 235 -210 -3 -8 -10 -14 -16 -14 -7 0 -7 -4 1 -12 7 -7 12
-16 12 -20 0 -19 -29 -4 -98 47 -41 31 -127 94 -193 141 l-119 85 0 50 c0 27
3 49 6 49 3 0 81 -52 172 -116z m1354 57 c-7 -4 -14 -18 -15 -29 -1 -12 -5
-22 -9 -22 -10 0 -10 3 2 34 5 14 15 26 22 26 10 0 10 -2 0 -9z m-1488 -97
c11 -6 22 -16 24 -23 3 -8 -10 -3 -27 10 -17 12 -31 28 -31 33 0 7 3 8 8 1 4
-5 16 -15 26 -21z m547 -7 c-10 -9 -11 -8 -5 6 3 10 9 15 12 12 3 -3 0 -11 -7
-18z m-1701 -7 c0 -4 -13 -7 -30 -6 -16 1 -30 6 -30 12 0 6 13 9 30 6 17 -2
30 -8 30 -12z m2680 6 c0 -11 -19 -15 -25 -6 -3 5 1 10 9 10 9 0 16 -2 16 -4z
m-1365 -147 c241 -179 229 -168 207 -185 -10 -8 -12 -13 -5 -14 9 0 10 -7 3
-24 -5 -13 -6 -27 -3 -30 4 -3 1 -6 -6 -6 -12 0 -114 73 -156 111 -27 25 -133
106 -194 149 -50 34 -51 36 -51 88 0 28 3 52 8 52 4 0 93 -64 197 -141z m1355
81 c0 -5 -5 -10 -11 -10 -5 0 -7 5 -4 10 3 6 8 10 11 10 2 0 4 -4 4 -10z
m-935 -20 c-3 -5 -12 -10 -18 -10 -7 0 -6 4 3 10 19 12 23 12 15 0z m5 -30 c0
-5 -7 -10 -15 -10 -8 0 -15 5 -15 10 0 6 7 10 15 10 8 0 15 -4 15 -10z m940
-9 c0 -6 -4 -12 -8 -15 -5 -3 -9 1 -9 9 0 8 4 15 9 15 4 0 8 -4 8 -9z m-1553
-33 c-3 -8 -6 -5 -6 6 -1 11 2 17 5 13 3 -3 4 -12 1 -19z m49 -36 c-6 -5 -36
23 -36 34 0 4 9 -1 20 -11 11 -10 18 -20 16 -23z m157 -150 c108 -85 198 -157
198 -161 1 -3 3 -22 4 -41 2 -19 6 -45 10 -57 9 -28 -9 -31 -27 -4 -7 10 -17
19 -21 19 -5 0 -71 51 -148 114 -76 62 -161 130 -189 151 -49 38 -50 39 -50
93 0 42 3 53 13 48 6 -4 101 -77 210 -162z m-1413 132 c0 -8 -4 -12 -10 -9 -5
3 -10 10 -10 16 0 5 5 9 10 9 6 0 10 -7 10 -16z m45 -4 c3 -5 -1 -10 -9 -10
-8 0 -18 5 -21 10 -3 6 1 10 9 10 8 0 18 -4 21 -10z m2735 -40 c0 -5 -4 -10
-10 -10 -5 0 -10 5 -10 10 0 6 5 10 10 10 6 0 10 -4 10 -10z m-1532 -99 c9 -5
14 -12 11 -16 -7 -6 -59 37 -59 49 0 4 7 0 15 -8 9 -9 24 -20 33 -25z m165
-173 c158 -129 205 -172 205 -190 0 -13 1 -27 2 -33 5 -22 -1 -45 -11 -45 -6
0 -81 60 -167 133 -87 73 -178 150 -204 171 -46 36 -48 41 -48 88 0 27 4 48
10 46 5 -1 101 -78 213 -170z m413 115 c-11 -11 -17 4 -9 23 7 18 8 18 11 1 2
-10 1 -21 -2 -24z m987 6 c-6 -6 -9 -18 -6 -25 3 -8 -1 -14 -11 -14 -10 0 -13
6 -9 18 9 24 25 43 31 37 3 -3 1 -10 -5 -16z m-2823 -29 c0 -5 -7 -7 -15 -4
-8 4 -15 8 -15 10 0 2 7 4 15 4 8 0 15 -4 15 -10z m2860 -4 c0 -2 -8 -10 -17
-17 -16 -13 -17 -12 -4 4 13 16 21 21 21 13z m-2500 -27 c0 -11 -4 -17 -10
-14 -5 3 -10 13 -10 21 0 8 5 14 10 14 6 0 10 -9 10 -21z m906 -76 c-5 -5 -56
42 -56 51 0 3 14 -6 30 -21 17 -14 28 -28 26 -30z m154 -159 c131 -112 206
-183 209 -197 1 -12 8 -25 14 -29 7 -4 7 -11 -2 -21 -8 -10 -9 -17 -1 -22 13
-8 13 -35 0 -35 -11 0 -69 50 -218 189 -57 53 -112 101 -122 106 -9 6 -36 27
-59 47 -38 35 -41 42 -41 88 0 27 3 50 8 50 4 0 99 -79 212 -176z m-203 24
c-3 -8 -6 -5 -6 6 -1 11 2 17 5 13 3 -3 4 -12 1 -19z m-2199 -26 c2 -7 -2 -10
-12 -6 -9 3 -16 11 -16 16 0 13 23 5 28 -10z m2242 3 c20 -24 6 -28 -15 -5
-10 11 -13 20 -8 20 6 0 16 -7 23 -15z m163 -185 c211 -189 247 -228 225 -241
-6 -4 -11 -21 -11 -38 0 -18 -4 -30 -8 -29 -5 2 -76 68 -159 147 -83 79 -163
153 -178 164 -79 59 -92 78 -92 134 0 29 2 53 5 53 3 0 101 -86 218 -190z
m-2383 139 c0 -5 10 -9 23 -7 16 2 23 -3 25 -19 4 -28 -9 -29 -33 -3 -10 11
-24 20 -32 20 -7 0 -13 5 -13 10 0 6 7 10 15 10 8 0 15 -5 15 -11z m4160 -13
c0 -8 -4 -18 -10 -21 -5 -3 -10 3 -10 14 0 12 5 21 10 21 6 0 10 -6 10 -14z
m-1335 -16 c3 -5 -1 -10 -9 -10 -9 0 -16 5 -16 10 0 6 4 10 9 10 6 0 13 -4 16
-10z m1115 -20 c0 -5 -2 -10 -4 -10 -3 0 -8 5 -11 10 -3 6 -1 10 4 10 6 0 11
-4 11 -10z m-3920 -10 c13 -8 13 -10 -2 -10 -9 0 -20 5 -23 10 -8 13 5 13 25
0z m2810 -3 c0 -2 -10 -12 -21 -23 -22 -19 -22 -19 -8 4 12 19 29 30 29 19z
m1160 -22 c0 -12 -19 -12 -23 0 -4 9 -1 12 9 8 7 -3 14 -7 14 -8z m-3952 -33
c2 -7 -2 -10 -12 -6 -9 3 -16 11 -16 16 0 13 23 5 28 -10z m2190 -37 c-3 -3
-13 7 -23 22 l-17 28 23 -22 c12 -12 20 -25 17 -28z m2080 16 c-7 -11 -16 -18
-20 -15 -4 3 -2 11 5 19 18 21 29 18 15 -4z m-1493 -1 c3 -5 1 -10 -4 -10 -6
0 -11 5 -11 10 0 6 2 10 4 10 3 0 8 -4 11 -10z m-2750 -20 c3 -5 -1 -10 -9
-10 -9 0 -16 5 -16 10 0 6 4 10 9 10 6 0 13 -4 16 -10z m2762 -19 c10 -16 9
-18 -13 -18 -27 0 -26 -1 -18 21 8 21 17 20 31 -3z m1153 4 c-7 -9 -15 -13
-17 -11 -7 7 7 26 19 26 6 0 6 -6 -2 -15z m590 5 c0 -5 -4 -10 -10 -10 -5 0
-10 5 -10 10 0 6 5 10 10 10 6 0 10 -4 10 -10z m-370 -20 c0 -5 -5 -10 -11
-10 -5 0 -7 5 -4 10 3 6 8 10 11 10 2 0 4 -4 4 -10z m-4087 -14 c4 -10 0 -12
-14 -9 -22 6 -26 23 -5 23 8 0 16 -6 19 -14z m4707 10 c0 -3 -4 -8 -10 -11 -5
-3 -10 -1 -10 4 0 6 5 11 10 11 6 0 10 -2 10 -4z m-1990 -41 c0 -8 -7 -15 -15
-15 -26 0 -18 20 13 29 1 1 2 -6 2 -14z m1264 0 c6 -17 4 -18 -18 -9 -20 8
-21 24 -2 24 8 0 16 -7 20 -15z m716 -6 c0 -5 -4 -9 -9 -9 -5 0 -8 -7 -7 -16
0 -9 -4 -19 -11 -21 -7 -3 -11 6 -11 24 1 21 6 29 19 30 11 1 19 -2 19 -8z
m-1020 -30 c0 -11 -11 -11 -29 0 -7 5 -10 14 -6 20 5 9 10 9 21 0 8 -6 14 -15
14 -20z m-970 -3 c0 -3 -4 -8 -10 -11 -5 -3 -10 -1 -10 4 0 6 5 11 10 11 6 0
10 -2 10 -4z m1035 -77 c4 -6 5 -12 2 -15 -7 -7 -37 7 -37 17 0 13 27 11 35
-2z m723 -47 c6 -18 -15 -14 -22 4 -4 10 -1 14 6 12 6 -2 14 -10 16 -16z
m-1778 -76 c0 -3 -4 -8 -10 -11 -5 -3 -10 -1 -10 4 0 6 5 11 10 11 6 0 10 -2
10 -4z m-90 -51 c7 -8 8 -15 2 -15 -5 0 -15 7 -22 15 -7 8 -8 15 -2 15 5 0 15
-7 22 -15z m-30 -35 c0 -5 -5 -10 -11 -10 -5 0 -7 5 -4 10 3 6 8 10 11 10 2 0
4 -4 4 -10z m17 -32 c-3 -8 -6 -5 -6 6 -1 11 2 17 5 13 3 -3 4 -12 1 -19z
m-227 -148 c-9 -6 -17 -5 -22 3 -5 8 -8 8 -8 1 0 -6 9 -19 20 -29 24 -22 26
-35 5 -35 -8 0 -15 4 -15 10 0 5 -10 19 -22 31 -15 14 -19 23 -11 26 8 3 9 12
3 28 -14 36 1 38 34 5 26 -25 28 -32 16 -40z m-30 -60 c0 -5 -7 -10 -16 -10
-8 0 -12 5 -9 10 3 6 10 10 16 10 5 0 9 -4 9 -10z"/>
<path d="M5414 8695 c-4 -8 -14 -15 -24 -15 -14 0 -18 -8 -18 -35 0 -38 9 -42
54 -25 19 7 30 7 40 -1 9 -7 14 -8 14 -1 0 5 -7 12 -15 16 -8 3 -12 12 -9 20
3 8 0 17 -5 21 -6 3 -9 10 -6 15 3 4 -2 11 -10 14 -9 3 -18 -1 -21 -9z"/>
<path d="M4722 8661 c-8 -5 -14 -25 -14 -45 0 -23 -6 -39 -16 -45 -22 -12 -12
-22 14 -15 11 3 28 19 38 35 10 16 22 27 27 24 17 -11 9 11 -11 33 -24 25 -21
24 -38 13z"/>
<path d="M5480 8591 c0 -5 4 -20 9 -33 5 -14 5 -44 1 -69 -5 -26 -5 -45 1 -47
5 -2 9 -10 9 -17 0 -17 28 -27 33 -12 3 9 7 9 19 0 8 -7 18 -9 22 -5 4 4 7 3
5 -3 -5 -21 14 -85 25 -85 7 0 22 14 34 30 18 23 19 30 8 30 -10 0 -13 6 -9
18 3 9 3 14 -2 10 -10 -9 -45 35 -45 56 0 9 -6 13 -14 10 -10 -4 -16 5 -21 25
-4 17 -13 31 -20 31 -8 0 -17 10 -21 22 -7 25 -34 55 -34 39z"/>
<path d="M6101 8557 c-6 -8 -7 -18 -3 -22 4 -5 -1 -5 -11 -2 -11 4 -20 1 -23
-8 -4 -8 -10 -15 -16 -15 -5 0 -6 6 -2 13 4 6 -4 2 -18 -11 -13 -12 -28 -19
-31 -15 -4 3 -7 -1 -7 -11 0 -21 -29 -33 -40 -16 -6 9 -11 7 -19 -9 -7 -12
-17 -19 -22 -15 -6 3 -18 0 -27 -8 -9 -8 -29 -20 -44 -28 -16 -7 -28 -17 -28
-22 0 -4 -7 -8 -16 -8 -13 0 -15 -6 -10 -27 4 -16 8 -40 8 -54 1 -18 6 -25 15
-22 7 3 13 9 13 15 0 5 5 6 10 3 6 -3 10 -2 10 3 0 6 14 15 30 21 17 5 33 17
36 25 3 9 10 13 16 10 5 -3 20 6 32 19 13 14 26 23 29 20 8 -7 37 22 37 37 0
7 7 9 16 6 8 -3 23 1 31 10 9 8 24 13 35 11 15 -4 18 -1 12 15 -4 14 -2 18 5
14 6 -4 14 1 17 11 3 10 10 26 15 35 5 10 9 22 9 28 0 15 -46 12 -59 -3z"/>
<path d="M4884 8508 c3 -10 1 -18 -3 -18 -5 0 -7 -10 -3 -22 l5 -22 9 23 c5
14 4 29 -3 39 -10 16 -10 15 -5 0z"/>
<path d="M4233 8460 c1 -11 5 -20 9 -20 4 0 8 9 8 20 0 11 -4 20 -9 20 -6 0
-9 -9 -8 -20z"/>
<path d="M4364 8432 c-17 -11 -24 -40 -11 -45 17 -5 47 4 47 14 0 5 -4 9 -9 9
-5 0 -11 7 -13 15 -2 8 -8 11 -14 7z"/>
<path d="M4685 8329 c5 -14 3 -19 -7 -17 -19 4 -59 -40 -90 -100 -6 -13 -18
-20 -25 -18 -8 3 -18 -5 -25 -19 -6 -14 -22 -32 -35 -41 -23 -14 -26 -14 -42
0 -10 9 -23 16 -29 16 -14 0 -15 -29 -2 -50 7 -12 12 -12 22 -2 6 6 26 12 43
12 18 0 35 3 39 7 3 4 14 8 24 9 9 1 41 4 70 8 33 4 52 3 52 -4 0 -5 7 -10 15
-10 8 0 15 4 15 8 0 10 86 10 96 0 4 -4 13 -3 20 3 9 7 19 7 33 0 25 -14 34
-14 26 -1 -4 6 8 10 29 10 19 0 37 -6 39 -12 3 -8 6 -5 6 5 1 15 6 17 32 12
17 -4 56 -6 88 -5 64 2 72 2 126 -1 22 -1 46 -7 53 -12 8 -6 12 -6 12 0 0 13
83 12 92 -1 4 -6 13 -4 24 5 14 11 18 11 22 1 3 -10 7 -10 18 -2 10 9 19 8 36
-4 26 -18 42 -21 32 -5 -4 8 0 8 15 0 12 -7 27 -9 33 -5 7 4 8 3 4 -4 -9 -15
9 -15 34 -2 22 12 53 3 43 -13 -4 -6 2 -8 18 -4 13 4 27 7 32 7 15 0 6 36 -17
64 -22 27 -24 27 -37 10 -35 -47 -46 -48 -85 -10 -43 41 -50 43 -84 16 -32
-25 -37 -25 -45 0 -3 11 -15 20 -26 20 -14 0 -19 7 -19 25 0 13 -5 36 -12 50
-13 29 -43 35 -33 7 3 -11 -3 -29 -15 -45 -11 -14 -20 -32 -20 -41 0 -20 -36
-21 -47 -2 -4 8 -17 14 -27 13 -15 -2 -22 7 -28 36 -5 24 -4 46 2 58 8 15 7
21 -4 25 -22 8 -51 0 -48 -14 2 -11 -11 -17 -32 -13 -5 1 -6 -5 -3 -13 4 -10
1 -13 -9 -9 -10 4 -15 1 -13 -8 5 -28 -39 -98 -63 -99 -4 0 -10 9 -13 20 -4
11 -15 20 -26 20 -24 0 -31 18 -33 78 -1 29 -6 47 -15 50 -8 3 -11 0 -7 -7 4
-6 1 -11 -8 -11 -9 0 -16 -7 -16 -15 0 -8 -7 -15 -15 -15 -8 0 -15 -7 -15 -15
0 -8 -11 -22 -24 -30 -13 -9 -26 -25 -29 -35 -7 -28 -37 -37 -52 -16 -7 9 -17
16 -21 15 -23 -4 -34 3 -34 21 0 11 -6 20 -12 20 -10 0 -10 2 -2 8 7 4 13 21
14 37 3 45 1 55 -11 55 -6 0 -8 -9 -4 -21z"/>
<path d="M5357 8313 c-4 -3 -7 -11 -7 -17 0 -6 5 -5 12 2 6 6 9 14 7 17 -3 3
-9 2 -12 -2z"/>
<path d="M6003 8263 c-18 -9 -33 -20 -33 -25 0 -4 -7 -8 -15 -8 -8 0 -15 -6
-15 -14 0 -8 -13 -17 -30 -21 -16 -4 -30 -11 -30 -16 0 -6 -4 -7 -10 -4 -5 3
-10 -1 -10 -9 0 -14 -37 -42 -51 -39 -3 1 -10 -7 -16 -17 -18 -28 5 -52 50
-52 20 0 35 -4 32 -8 -10 -17 14 -20 29 -4 11 10 16 11 16 3 0 -19 13 -1 17
23 2 12 11 30 20 41 10 10 19 30 21 44 1 14 13 34 25 44 12 10 19 18 14 19 -4
0 -1 14 8 30 9 17 14 30 13 29 -2 0 -18 -8 -35 -16z"/>
<path d="M4366 8205 c4 -8 8 -15 10 -15 2 0 4 7 4 15 0 8 -4 15 -10 15 -5 0
-7 -7 -4 -15z"/>
<path d="M4391 8174 c0 -11 3 -14 6 -6 3 7 2 16 -1 19 -3 4 -6 -2 -5 -13z"/>
<path d="M5665 8180 c-3 -5 -1 -10 4 -10 6 0 11 5 11 10 0 6 -2 10 -4 10 -3 0
-8 -4 -11 -10z"/>
<path d="M5187 8119 c7 -7 15 -10 18 -7 3 3 -2 9 -12 12 -14 6 -15 5 -6 -5z"/>
<path d="M5690 8110 c0 -5 7 -10 15 -10 8 0 15 -4 15 -10 0 -5 5 -10 11 -10
14 0 2 18 -22 30 -13 7 -19 7 -19 0z"/>
<path d="M5540 8009 c0 -5 5 -7 10 -4 6 3 10 8 10 11 0 2 -4 4 -10 4 -5 0 -10
-5 -10 -11z"/>
<path d="M5291 7512 c-28 -9 -6 -22 33 -19 42 2 76 16 45 18 -8 0 -26 2 -41 3
-14 1 -31 0 -37 -2z"/>
<path d="M4995 7420 c-3 -6 1 -7 9 -4 18 7 21 14 7 14 -6 0 -13 -4 -16 -10z"/>
<path d="M5450 6966 c0 -9 5 -16 10 -16 6 0 10 4 10 9 0 6 -4 13 -10 16 -5 3
-10 -1 -10 -9z"/>
<path d="M5410 6900 c0 -5 5 -10 11 -10 5 0 7 5 4 10 -3 6 -8 10 -11 10 -2 0
-4 -4 -4 -10z"/>
<path d="M5460 6719 c0 -5 5 -7 10 -4 6 3 10 8 10 11 0 2 -4 4 -10 4 -5 0 -10
-5 -10 -11z"/>
<path d="M5435 6640 c-3 -5 1 -10 10 -10 9 0 13 5 10 10 -3 6 -8 10 -10 10 -2
0 -7 -4 -10 -10z"/>
<path d="M7108 6462 c-10 -2 -18 -8 -18 -13 0 -10 86 -6 96 3 6 7 -55 14 -78
10z"/>
<path d="M6846 6392 c-2 -4 -42 -7 -88 -6 -92 1 -121 -3 -113 -17 9 -14 249 1
263 16 4 5 -1 5 -10 2 -10 -4 -18 -2 -18 3 0 12 -27 13 -34 2z"/>
<path d="M6610 6380 c0 -5 5 -10 10 -10 6 0 10 5 10 10 0 6 -4 10 -10 10 -5 0
-10 -4 -10 -10z"/>
<path d="M6846 6343 c-7 -8 -76 -14 -153 -13 -37 0 -63 -5 -63 -10 0 -11 162
-12 226 -1 31 5 33 7 15 18 -10 6 -21 9 -25 6z"/>
<path d="M6813 6282 c-6 -4 -63 -7 -127 -7 -64 0 -116 -4 -116 -8 0 -5 7 -7
15 -4 8 4 17 2 20 -3 9 -15 249 0 263 15 4 5 0 6 -9 2 -9 -3 -21 -1 -25 3 -5
5 -14 6 -21 2z"/>
<path d="M5505 6090 c-3 -5 -1 -10 4 -10 6 0 11 5 11 10 0 6 -2 10 -4 10 -3 0
-8 -4 -11 -10z"/>
<path d="M5485 6060 c3 -5 11 -10 16 -10 6 0 7 5 4 10 -3 6 -11 10 -16 10 -6
0 -7 -4 -4 -10z"/>
<path d="M6517 6048 c6 -11 53 -10 53 2 0 5 -13 8 -29 7 -16 -1 -27 -5 -24 -9z"/>
<path d="M6620 6053 c0 -5 22 -8 49 -8 27 0 44 3 38 7 -16 10 -87 10 -87 1z"/>
<path d="M6605 6009 c-26 -6 -23 -7 18 -8 26 0 47 1 47 3 0 9 -37 12 -65 5z"/>
<path d="M6472 6004 c8 -7 88 -8 95 0 4 3 -18 6 -47 6 -29 0 -51 -3 -48 -6z"/>
<path d="M6467 5962 c-38 -8 -4 -18 50 -16 32 2 76 3 97 3 22 1 36 4 33 8 -7
7 -150 11 -180 5z"/>
<path d="M6435 5910 c-18 -8 -17 -9 8 -9 16 -1 26 3 22 9 -3 6 -7 10 -8 9 -1
0 -11 -4 -22 -9z"/>
<path d="M6568 5913 c7 -3 16 -2 19 1 4 3 -2 6 -13 5 -11 0 -14 -3 -6 -6z"/>
<path d="M5440 5875 c0 -8 9 -15 20 -15 11 0 20 7 20 15 0 8 -9 15 -20 15 -11
0 -20 -7 -20 -15z"/>
<path d="M6390 5860 c0 -6 43 -9 105 -9 58 1 105 5 105 9 0 4 -47 8 -105 8
-61 1 -105 -3 -105 -8z"/>
<path d="M2826 5815 c-3 -9 0 -15 9 -15 8 0 15 7 15 15 0 8 -4 15 -9 15 -5 0
-11 -7 -15 -15z"/>
<path d="M6385 5810 c4 -6 11 -8 16 -5 14 9 11 15 -7 15 -8 0 -12 -5 -9 -10z"/>
<path d="M6498 5813 c6 -2 18 -2 25 0 6 3 1 5 -13 5 -14 0 -19 -2 -12 -5z"/>
<path d="M5483 5766 c-9 -11 -6 -19 15 -37 22 -19 23 -20 9 -3 -10 12 -15 28
-11 38 7 19 3 20 -13 2z"/>
<path d="M2805 5760 c-3 -5 3 -10 14 -10 12 0 21 5 21 10 0 6 -6 10 -14 10 -8
0 -18 -4 -21 -10z"/>
<path d="M6494 5749 c-3 -5 6 -9 20 -9 31 0 34 6 6 13 -11 3 -23 1 -26 -4z"/>
<path d="M6288 5733 c6 -2 18 -2 25 0 6 3 1 5 -13 5 -14 0 -19 -2 -12 -5z"/>
<path d="M6378 5733 c7 -3 16 -2 19 1 4 3 -2 6 -13 5 -11 0 -14 -3 -6 -6z"/>
<path d="M6418 5733 c6 -2 18 -2 25 0 6 3 1 5 -13 5 -14 0 -19 -2 -12 -5z"/>
<path d="M3730 5710 c0 -5 5 -10 11 -10 5 0 7 5 4 10 -3 6 -8 10 -11 10 -2 0
-4 -4 -4 -10z"/>
<path d="M2750 5700 c0 -14 26 -18 61 -10 19 4 32 9 29 10 -15 6 -90 6 -90 0z"/>
<path d="M6463 5703 c9 -2 23 -2 30 0 6 3 -1 5 -18 5 -16 0 -22 -2 -12 -5z"/>
<path d="M6258 5693 c7 -3 16 -2 19 1 4 3 -2 6 -13 5 -11 0 -14 -3 -6 -6z"/>
<path d="M6338 5693 c7 -3 16 -2 19 1 4 3 -2 6 -13 5 -11 0 -14 -3 -6 -6z"/>
<path d="M6378 5693 c6 -2 18 -2 25 0 6 3 1 5 -13 5 -14 0 -19 -2 -12 -5z"/>
<path d="M5460 5675 c0 -10 29 -24 34 -17 3 6 -3 12 -14 15 -11 3 -20 4 -20 2z"/>
<path d="M2740 5640 c0 -5 24 -10 53 -10 37 0 48 3 37 10 -20 13 -90 13 -90 0z"/>
<path d="M6373 5633 c9 -2 25 -2 35 0 9 3 1 5 -18 5 -19 0 -27 -2 -17 -5z"/>
<path d="M2760 5531 c-34 -9 -14 -18 35 -15 52 3 54 4 30 14 -24 10 -32 10
-65 1z"/>
<path d="M5495 5500 c3 -5 8 -10 11 -10 2 0 4 5 4 10 0 6 -5 10 -11 10 -5 0
-7 -4 -4 -10z"/>
<path d="M3696 5435 c-3 -8 -1 -15 4 -15 6 0 10 7 10 15 0 8 -2 15 -4 15 -2 0
-6 -7 -10 -15z"/>
<path d="M5490 5425 c0 -2 10 -10 23 -16 20 -11 21 -11 8 4 -13 16 -31 23 -31
12z"/>
<path d="M3695 5210 c-3 -5 -1 -10 4 -10 6 0 11 5 11 10 0 6 -2 10 -4 10 -3 0
-8 -4 -11 -10z"/>
<path d="M4860 5209 c0 -4 6 -9 13 -12 6 -2 9 -7 5 -11 -3 -4 -15 -3 -25 2
-19 10 -43 6 -43 -8 0 -7 159 -40 195 -40 9 0 13 5 10 11 -4 6 -13 8 -20 5 -8
-3 -15 0 -18 7 -2 7 -19 12 -38 12 -25 0 -34 5 -33 17 1 10 -8 18 -22 21 -13
2 -24 1 -24 -4z"/>
<path d="M5034 5139 c-3 -5 6 -9 20 -9 31 0 34 6 6 13 -11 3 -23 1 -26 -4z"/>
<path d="M5110 5136 c0 -9 5 -16 10 -16 6 0 10 4 10 9 0 6 -4 13 -10 16 -5 3
-10 -1 -10 -9z"/>
<path d="M3090 5131 c0 -15 29 -33 45 -27 28 10 17 36 -15 36 -16 0 -30 -4
-30 -9z"/>
<path d="M5280 5089 c0 -5 5 -7 10 -4 6 3 10 8 10 11 0 2 -4 4 -10 4 -5 0 -10
-5 -10 -11z"/>
<path d="M4840 5080 c0 -5 5 -10 10 -10 6 0 10 5 10 10 0 6 -4 10 -10 10 -5 0
-10 -4 -10 -10z"/>
<path d="M3695 4990 c4 -6 11 -8 16 -5 14 9 11 15 -7 15 -8 0 -12 -5 -9 -10z"/>
<path d="M5495 4919 c-4 -6 -5 -12 -2 -15 2 -3 7 2 10 11 7 17 1 20 -8 4z"/>
<path d="M5460 4783 c0 -25 15 -39 25 -22 4 5 13 8 21 5 8 -3 14 1 14 10 0 11
-4 12 -19 4 -16 -8 -22 -6 -30 7 -9 16 -10 16 -11 -4z"/>
<path d="M3705 4740 c-3 -5 -1 -10 4 -10 6 0 11 5 11 10 0 6 -2 10 -4 10 -3 0
-8 -4 -11 -10z"/>
<path d="M5485 4590 c-3 -5 -1 -10 4 -10 6 0 11 5 11 10 0 6 -2 10 -4 10 -3 0
-8 -4 -11 -10z"/>
<path d="M6620 4570 c0 -5 7 -10 16 -10 8 0 12 5 9 10 -3 6 -10 10 -16 10 -5
0 -9 -4 -9 -10z"/>
<path d="M6580 4530 c0 -5 12 -10 28 -10 21 0 24 2 12 10 -20 13 -40 13 -40 0z"/>
<path d="M6363 4513 c9 -2 25 -2 35 0 9 3 1 5 -18 5 -19 0 -27 -2 -17 -5z"/>
<path d="M6468 4513 c7 -3 16 -2 19 1 4 3 -2 6 -13 5 -11 0 -14 -3 -6 -6z"/>
<path d="M3711 4502 c-1 -8 -6 -10 -13 -6 -10 5 -10 4 -1 -6 15 -16 28 -8 20
12 -4 11 -6 11 -6 0z"/>
<path d="M5500 4499 c0 -5 5 -7 10 -4 6 3 10 8 10 11 0 2 -4 4 -10 4 -5 0 -10
-5 -10 -11z"/>
<path d="M6880 4491 c0 -12 5 -21 10 -21 6 0 10 6 10 14 0 8 -4 18 -10 21 -5
3 -10 -3 -10 -14z"/>
<path d="M6558 4483 c7 -3 16 -2 19 1 4 3 -2 6 -13 5 -11 0 -14 -3 -6 -6z"/>
<path d="M6508 4443 c6 -2 18 -2 25 0 6 3 1 5 -13 5 -14 0 -19 -2 -12 -5z"/>
<path d="M5516 4397 c3 -10 9 -15 12 -12 3 3 0 11 -7 18 -10 9 -11 8 -5 -6z"/>
<path d="M6365 4340 c-3 -5 1 -10 10 -10 9 0 13 5 10 10 -3 6 -8 10 -10 10 -2
0 -7 -4 -10 -10z"/>
<path d="M6325 4300 c3 -5 8 -10 11 -10 2 0 4 5 4 10 0 6 -5 10 -11 10 -5 0
-7 -4 -4 -10z"/>
<path d="M6270 4266 c0 -2 7 -7 16 -10 8 -3 12 -2 9 4 -6 10 -25 14 -25 6z"/>
<path d="M6198 4253 c7 -3 16 -2 19 1 4 3 -2 6 -13 5 -11 0 -14 -3 -6 -6z"/>
<path d="M3696 4218 c3 -4 9 -8 15 -8 5 0 9 4 9 8 0 5 -7 9 -15 9 -8 0 -12 -4
-9 -9z"/>
<path d="M6240 4220 c20 -13 33 -13 25 0 -3 6 -14 10 -23 10 -15 0 -15 -2 -2
-10z"/>
<path d="M5475 4210 c-3 -5 -1 -10 4 -10 6 0 11 5 11 10 0 6 -2 10 -4 10 -3 0
-8 -4 -11 -10z"/>
<path d="M6158 4213 c7 -3 16 -2 19 1 4 3 -2 6 -13 5 -11 0 -14 -3 -6 -6z"/>
<path d="M6013 4203 c9 -2 25 -2 35 0 9 3 1 5 -18 5 -19 0 -27 -2 -17 -5z"/>
<path d="M3798 4193 c6 -2 18 -2 25 0 6 3 1 5 -13 5 -14 0 -19 -2 -12 -5z"/>
<path d="M6196 4171 c-4 -5 3 -7 14 -4 23 6 26 13 6 13 -8 0 -17 -4 -20 -9z"/>
<path d="M5966 4158 c7 -10 43 -9 69 2 15 7 8 9 -27 8 -26 -1 -45 -5 -42 -10z"/>
<path d="M6070 4160 c0 -7 14 -8 38 -4 51 9 53 14 4 14 -23 0 -42 -5 -42 -10z"/>
<path d="M5480 4130 c-13 -8 -12 -10 3 -10 9 0 17 5 17 10 0 12 -1 12 -20 0z"/>
<path d="M6160 4130 c-13 -8 -12 -10 3 -10 9 0 17 5 17 10 0 12 -1 12 -20 0z"/>
<path d="M6085 4120 c3 -5 11 -10 16 -10 6 0 7 5 4 10 -3 6 -11 10 -16 10 -6
0 -7 -4 -4 -10z"/>
<path d="M5943 4113 c9 -2 25 -2 35 0 9 3 1 5 -18 5 -19 0 -27 -2 -17 -5z"/>
<path d="M5480 4087 c0 -10 6 -17 14 -17 8 0 17 -6 19 -12 3 -8 6 -8 6 -2 1 6
-8 19 -19 29 -18 16 -20 16 -20 2z"/>
<path d="M5918 4073 c7 -3 16 -2 19 1 4 3 -2 6 -13 5 -11 0 -14 -3 -6 -6z"/>
<path d="M6088 4043 c7 -3 16 -2 19 1 4 3 -2 6 -13 5 -11 0 -14 -3 -6 -6z"/>
<path d="M6008 4033 c7 -3 16 -2 19 1 4 3 -2 6 -13 5 -11 0 -14 -3 -6 -6z"/>
<path d="M6685 4011 c-3 -5 -1 -12 4 -15 5 -3 11 1 15 9 6 16 -9 21 -19 6z"/>
<path d="M6045 4000 c3 -5 10 -10 16 -10 5 0 9 5 9 10 0 6 -7 10 -16 10 -8 0
-12 -4 -9 -10z"/>
<path d="M5840 3990 c0 -5 5 -10 10 -10 6 0 10 5 10 10 0 6 -4 10 -10 10 -5 0
-10 -4 -10 -10z"/>
<path d="M5968 3993 c7 -3 16 -2 19 1 4 3 -2 6 -13 5 -11 0 -14 -3 -6 -6z"/>
<path d="M6005 3960 c3 -5 10 -10 16 -10 5 0 9 5 9 10 0 6 -7 10 -16 10 -8 0
-12 -4 -9 -10z"/>
<path d="M3705 3950 c-3 -5 -1 -10 4 -10 6 0 11 5 11 10 0 6 -2 10 -4 10 -3 0
-8 -4 -11 -10z"/>
<path d="M5798 3943 c7 -3 16 -2 19 1 4 3 -2 6 -13 5 -11 0 -14 -3 -6 -6z"/>
<path d="M3798 3923 c6 -2 18 -2 25 0 6 3 1 5 -13 5 -14 0 -19 -2 -12 -5z"/>
<path d="M4100 3873 c0 -10 4 -14 8 -8 4 6 11 13 16 18 5 4 2 7 -7 7 -10 0
-17 -8 -17 -17z"/>
<path d="M5850 3860 c0 -5 7 -7 15 -4 8 4 15 8 15 10 0 2 -7 4 -15 4 -8 0 -15
-4 -15 -10z"/>
<path d="M5805 3820 c-4 -6 7 -10 27 -10 25 0 29 3 18 10 -19 13 -37 13 -45 0z"/>
<path d="M5608 3808 c-8 -4 4 -8 30 -8 23 0 42 2 42 4 0 8 -60 12 -72 4z"/>
<path d="M5696 3811 c-3 -4 12 -8 34 -8 22 0 37 4 34 8 -3 5 -18 9 -34 9 -16
0 -31 -4 -34 -9z"/>
<path d="M5484 3782 c-8 -22 -8 -29 1 -29 7 0 12 13 13 29 0 15 0 28 -1 28 -2
0 -7 -13 -13 -28z"/>
<path d="M5788 3773 c7 -3 16 -2 19 1 4 3 -2 6 -13 5 -11 0 -14 -3 -6 -6z"/>
<path d="M5708 3763 c7 -3 16 -2 19 1 4 3 -2 6 -13 5 -11 0 -14 -3 -6 -6z"/>
<path d="M5625 3720 c-3 -5 -2 -10 4 -10 5 0 13 5 16 10 3 6 2 10 -4 10 -5 0
-13 -4 -16 -10z"/>
<path d="M5668 3723 c7 -3 16 -2 19 1 4 3 -2 6 -13 5 -11 0 -14 -3 -6 -6z"/>
<path d="M5470 3701 c0 -6 4 -13 10 -16 6 -3 7 1 4 9 -7 18 -14 21 -14 7z"/>
<path d="M5708 3683 c6 -2 18 -2 25 0 6 3 1 5 -13 5 -14 0 -19 -2 -12 -5z"/>
<path d="M5623 3673 c9 -2 23 -2 30 0 6 3 -1 5 -18 5 -16 0 -22 -2 -12 -5z"/>
<path d="M5490 3595 c0 -8 4 -15 10 -15 5 0 7 7 4 15 -4 8 -8 15 -10 15 -2 0
-4 -7 -4 -15z"/>
<path d="M5610 3560 c0 -5 5 -10 11 -10 5 0 7 5 4 10 -3 6 -8 10 -11 10 -2 0
-4 -4 -4 -10z"/>
<path d="M6201 3544 c0 -11 3 -14 6 -6 3 7 2 16 -1 19 -3 4 -6 -2 -5 -13z"/>
<path d="M3715 3440 c-3 -5 -1 -10 4 -10 6 0 11 5 11 10 0 6 -2 10 -4 10 -3 0
-8 -4 -11 -10z"/>
<path d="M5600 3339 c0 -5 5 -7 11 -3 6 3 15 1 19 -6 5 -8 9 -7 13 4 5 12 0
16 -18 16 -14 0 -25 -5 -25 -11z"/>
<path d="M6126 3215 c4 -8 11 -15 16 -15 6 0 5 6 -2 15 -7 8 -14 15 -16 15 -2
0 -1 -7 2 -15z"/>
<path d="M3716 3193 c-6 -14 -5 -15 5 -6 7 7 10 15 7 18 -3 3 -9 -2 -12 -12z"/>
<path d="M6220 3195 c0 -9 6 -12 15 -9 8 4 15 10 15 15 0 5 -7 9 -15 9 -8 0
-15 -7 -15 -15z"/>
<path d="M5450 3001 c0 -5 7 -11 14 -14 10 -4 13 -1 9 9 -6 15 -23 19 -23 5z"/>
<path d="M5495 3000 c3 -5 8 -10 11 -10 2 0 4 5 4 10 0 6 -5 10 -11 10 -5 0
-7 -4 -4 -10z"/>
<path d="M3706 2968 c3 -4 9 -8 15 -8 5 0 9 4 9 8 0 5 -7 9 -15 9 -8 0 -12 -4
-9 -9z"/>
<path d="M2420 2950 c0 -5 5 -10 10 -10 6 0 10 5 10 10 0 6 -4 10 -10 10 -5 0
-10 -4 -10 -10z"/>
<path d="M5610 2938 c0 -13 6 -15 27 -9 37 10 39 26 3 26 -21 0 -30 -5 -30
-17z"/>
<path d="M6130 2900 c0 -5 5 -10 11 -10 5 0 7 5 4 10 -3 6 -8 10 -11 10 -2 0
-4 -4 -4 -10z"/>
<path d="M6200 2830 c0 -5 5 -10 10 -10 6 0 10 5 10 10 0 6 -4 10 -10 10 -5 0
-10 -4 -10 -10z"/>
<path d="M6210 2795 c-14 -16 -10 -18 14 -9 9 3 16 10 16 15 0 14 -16 11 -30
-6z"/>
<path d="M5470 2779 c0 -5 5 -7 10 -4 6 3 10 8 10 11 0 2 -4 4 -10 4 -5 0 -10
-5 -10 -11z"/>
<path d="M6227 2773 c-10 -9 -8 -33 2 -33 5 0 11 9 14 20 5 20 -3 26 -16 13z"/>
<path d="M3715 2720 c-3 -5 -1 -10 4 -10 6 0 11 5 11 10 0 6 -2 10 -4 10 -3 0
-8 -4 -11 -10z"/>
<path d="M5452 2703 l-23 -25 35 -34 c46 -44 53 -43 21 3 -28 43 -31 55 -11
47 11 -4 13 0 9 15 -3 12 -6 21 -7 20 0 -1 -11 -12 -24 -26z"/>
<path d="M5940 2700 c0 -5 5 -10 10 -10 6 0 10 5 10 10 0 6 -4 10 -10 10 -5 0
-10 -4 -10 -10z"/>
<path d="M2585 2660 c3 -5 8 -10 11 -10 2 0 4 5 4 10 0 6 -5 10 -11 10 -5 0
-7 -4 -4 -10z"/>
<path d="M2570 2600 c9 -4 31 -5 50 0 34 8 33 8 -15 9 -34 0 -45 -3 -35 -9z"/>
<path d="M2560 2549 c0 -13 27 -17 61 -10 34 8 34 8 -13 12 -27 2 -48 1 -48
-2z"/>
<path d="M6038 2533 c7 -3 16 -2 19 1 4 3 -2 6 -13 5 -11 0 -14 -3 -6 -6z"/>
<path d="M5490 2520 c0 -5 5 -10 11 -10 5 0 7 5 4 10 -3 6 -8 10 -11 10 -2 0
-4 -4 -4 -10z"/>
<path d="M6093 2523 c9 -2 23 -2 30 0 6 3 -1 5 -18 5 -16 0 -22 -2 -12 -5z"/>
<path d="M2560 2489 c0 -5 21 -9 47 -9 25 0 44 2 41 5 -9 9 -88 13 -88 4z"/>
<path d="M3665 2490 c-3 -5 -1 -10 4 -10 6 0 11 5 11 10 0 6 -2 10 -4 10 -3 0
-8 -4 -11 -10z"/>
<path d="M6118 2473 c7 -3 16 -2 19 1 4 3 -2 6 -13 5 -11 0 -14 -3 -6 -6z"/>
<path d="M2470 2433 c0 -5 17 -9 38 -10 32 -1 33 0 12 7 -33 11 -50 12 -50 3z"/>
<path d="M2567 2428 c2 -5 20 -8 39 -8 21 0 33 4 29 10 -3 5 -21 9 -40 7 -18
-1 -31 -5 -28 -9z"/>
<path d="M6128 2413 c6 -2 18 -2 25 0 6 3 1 5 -13 5 -14 0 -19 -2 -12 -5z"/>
<path d="M6310 2391 c0 -6 5 -13 10 -16 6 -3 10 1 10 9 0 9 -4 16 -10 16 -5 0
-10 -4 -10 -9z"/>
<path d="M2593 2383 c-25 -10 -12 -23 22 -23 19 0 35 5 35 10 0 6 -4 10 -9 10
-5 0 -15 2 -23 4 -7 3 -19 2 -25 -1z"/>
<path d="M6048 2363 c7 -3 16 -2 19 1 4 3 -2 6 -13 5 -11 0 -14 -3 -6 -6z"/>
<path d="M6118 2313 c7 -3 16 -2 19 1 4 3 -2 6 -13 5 -11 0 -14 -3 -6 -6z"/>
<path d="M6168 2303 c6 -2 18 -2 25 0 6 3 1 5 -13 5 -14 0 -19 -2 -12 -5z"/>
<path d="M2583 2260 c-33 -14 -29 -15 28 -11 35 2 47 6 38 12 -17 11 -37 10
-66 -1z"/>
<path d="M5507 2244 c6 -15 23 -19 23 -5 0 5 -7 11 -14 14 -10 4 -13 1 -9 -9z"/>
<path d="M6321 2214 c0 -11 3 -14 6 -6 3 7 2 16 -1 19 -3 4 -6 -2 -5 -13z"/>
<path d="M2518 2203 c7 -3 16 -2 19 1 4 3 -2 6 -13 5 -11 0 -14 -3 -6 -6z"/>
<path d="M2586 2201 c-12 -4 1 -7 34 -8 33 0 48 2 39 8 -17 10 -47 10 -73 0z"/>
<path d="M6208 2193 c6 -2 18 -2 25 0 6 3 1 5 -13 5 -14 0 -19 -2 -12 -5z"/>
<path d="M2530 2150 c-8 -5 -10 -10 -5 -10 6 0 17 5 25 10 8 5 11 10 5 10 -5
0 -17 -5 -25 -10z"/>
<path d="M2615 2150 c-4 -6 11 -10 41 -10 54 0 55 4 2 14 -21 4 -39 2 -43 -4z"/>
<path d="M2585 2140 c3 -5 8 -10 11 -10 2 0 4 5 4 10 0 6 -5 10 -11 10 -5 0
-7 -4 -4 -10z"/>
<path d="M7360 2101 c0 -5 5 -13 10 -16 6 -3 10 -2 10 4 0 5 -4 13 -10 16 -5
3 -10 2 -10 -4z"/>
<path d="M7410 2100 c-12 -8 -11 -10 8 -10 12 0 22 5 22 10 0 13 -11 13 -30 0z"/>
<path d="M7460 2106 c0 -2 7 -7 16 -10 8 -3 12 -2 9 4 -6 10 -25 14 -25 6z"/>
<path d="M2548 2093 c6 -2 18 -2 25 0 6 3 1 5 -13 5 -14 0 -19 -2 -12 -5z"/>
<path d="M2606 2088 c3 -5 26 -8 51 -8 26 0 43 3 39 8 -10 9 -96 10 -90 0z"/>
<path d="M7170 2090 c-24 -15 -7 -19 38 -9 24 5 48 6 54 3 7 -4 8 -2 4 4 -9
14 -75 16 -96 2z"/>
<path d="M7288 2088 c5 -5 16 -8 23 -6 8 3 3 7 -10 11 -17 4 -21 3 -13 -5z"/>
<path d="M6977 2078 c-7 -4 30 -8 81 -8 58 0 91 4 87 10 -7 11 -150 9 -168 -2z"/>
<path d="M5460 2064 c0 -8 5 -12 10 -9 6 3 10 10 10 16 0 5 -4 9 -10 9 -5 0
-10 -7 -10 -16z"/>
<path d="M2650 2040 c0 -5 7 -10 16 -10 8 0 12 5 9 10 -3 6 -10 10 -16 10 -5
0 -9 -4 -9 -10z"/>
<path d="M7160 2035 c-11 -13 -10 -14 4 -9 9 3 16 10 16 15 0 13 -6 11 -20 -6z"/>
<path d="M6900 2021 c0 -4 11 -6 25 -3 14 2 25 6 25 8 0 2 -11 4 -25 4 -14 0
-25 -4 -25 -9z"/>
<path d="M6966 2018 c6 -10 110 -9 144 2 16 5 -7 7 -62 7 -48 0 -85 -4 -82 -9z"/>
<path d="M6385 1990 c3 -5 8 -10 11 -10 2 0 4 5 4 10 0 6 -5 10 -11 10 -5 0
-7 -4 -4 -10z"/>
<path d="M7155 1980 c-3 -5 -1 -10 4 -10 6 0 11 5 11 10 0 6 -2 10 -4 10 -3 0
-8 -4 -11 -10z"/>
<path d="M7025 1970 c-38 -3 -65 -8 -60 -11 10 -7 145 -3 152 4 9 9 -25 12
-92 7z"/>
<path d="M5515 1920 c3 -5 8 -10 11 -10 2 0 4 5 4 10 0 6 -5 10 -11 10 -5 0
-7 -4 -4 -10z"/>
<path d="M7063 1913 c9 -2 23 -2 30 0 6 3 -1 5 -18 5 -16 0 -22 -2 -12 -5z"/>
<path d="M6400 1880 c-6 -11 -9 -20 -8 -20 2 0 11 9 21 20 9 11 13 20 7 20 -5
0 -14 -9 -20 -20z"/>
<path d="M5540 1740 c0 -5 5 -10 11 -10 5 0 7 5 4 10 -3 6 -8 10 -11 10 -2 0
-4 -4 -4 -10z"/>
<path d="M6635 1630 c-3 -5 1 -10 9 -10 8 0 18 5 21 10 3 6 -1 10 -9 10 -8 0
-18 -4 -21 -10z"/>
<path d="M6725 1580 c3 -5 8 -10 11 -10 2 0 4 5 4 10 0 6 -5 10 -11 10 -5 0
-7 -4 -4 -10z"/>
<path d="M5507 1345 c-4 -8 -2 -17 3 -20 6 -4 10 -4 10 -1 0 2 3 11 6 20 3 9
2 16 -4 16 -5 0 -12 -7 -15 -15z"/>
<path d="M5060 1306 c0 -2 9 -6 20 -9 11 -3 18 -1 14 4 -5 9 -34 13 -34 5z"/>
<path d="M5245 1300 c-3 -5 -1 -10 4 -10 6 0 11 5 11 10 0 6 -2 10 -4 10 -3 0
-8 -4 -11 -10z"/>
<path d="M5119 1234 c-9 -12 -5 -14 25 -14 38 0 42 14 7 23 -11 3 -25 -1 -32
-9z"/>
<path d="M5275 1231 c-3 -5 -1 -12 5 -16 5 -3 10 1 10 9 0 18 -6 21 -15 7z"/>
<path d="M5322 1209 c-15 -24 -13 -29 9 -20 10 4 14 12 10 23 -6 16 -7 16 -19
-3z"/>
<path d="M5355 1220 c-3 -5 -1 -10 4 -10 6 0 11 5 11 10 0 6 -2 10 -4 10 -3 0
-8 -4 -11 -10z"/>
<path d="M5196 1115 c-3 -8 -1 -15 4 -15 6 0 10 7 10 15 0 8 -2 15 -4 15 -2 0
-6 -7 -10 -15z"/>
<path d="M4845 6290 c-3 -5 -1 -10 4 -10 6 0 11 5 11 10 0 6 -2 10 -4 10 -3 0
-8 -4 -11 -10z"/>
<path d="M4840 5939 c0 -5 5 -7 10 -4 6 3 10 8 10 11 0 2 -4 4 -10 4 -5 0 -10
-5 -10 -11z"/>
<path d="M5185 4520 c3 -5 8 -10 11 -10 2 0 4 5 4 10 0 6 -5 10 -11 10 -5 0
-7 -4 -4 -10z"/>
<path d="M4845 4210 c3 -5 8 -10 11 -10 2 0 4 5 4 10 0 6 -5 10 -11 10 -5 0
-7 -4 -4 -10z"/>
<path d="M4840 3240 c0 -5 5 -10 11 -10 5 0 7 5 4 10 -3 6 -8 10 -11 10 -2 0
-4 -4 -4 -10z"/>
<path d="M4845 2840 c3 -5 8 -10 11 -10 2 0 4 5 4 10 0 6 -5 10 -11 10 -5 0
-7 -4 -4 -10z"/>
<path d="M4840 2500 c0 -5 5 -10 11 -10 5 0 7 5 4 10 -3 6 -8 10 -11 10 -2 0
-4 -4 -4 -10z"/>
<path d="M4845 2140 c3 -5 8 -10 11 -10 2 0 4 5 4 10 0 6 -5 10 -11 10 -5 0
-7 -4 -4 -10z"/>
<path d="M4845 1970 c3 -5 8 -10 11 -10 2 0 4 5 4 10 0 6 -5 10 -11 10 -5 0
-7 -4 -4 -10z"/>
</g>
</svg>
