<svg width="44" height="40" viewBox="0 0 44 40" fill="none" xmlns="http://www.w3.org/2000/svg">
<path d="M14.7131 33.4043C21.2593 28.4803 22.0636 28.0922 23.9849 27.9362C32.6676 27.2302 39.1111 22.0202 39.1111 16.0081C39.1111 9.48808 31.57 4.00204 22 4.00204C12.43 4.00204 4.88889 9.49008 4.88889 16.0081C4.88889 19.7942 7.76111 23.5422 12.3542 25.9222C14.2682 26.9122 14.696 28.1562 14.6544 29.4783L14.6324 29.7783C14.6862 30.4383 14.7107 31.6163 14.7131 33.4043ZM24.4664 31.9183C24.015 31.9543 20.495 34.4703 13.9064 39.4663C13.5564 39.732 13.1189 39.908 12.6479 39.9725C12.177 40.0371 11.6933 39.9873 11.2565 39.8295C10.8198 39.6717 10.449 39.4126 10.1902 39.0844C9.93128 38.7561 9.79556 38.373 9.79978 37.9823C9.84867 33.2583 9.82911 30.5649 9.74111 29.9023C9.69711 29.5563 9.81933 29.3423 9.74111 29.3023C4.17511 26.4242 0 21.5502 0 16.0101C0 7.16806 9.85111 0 22 0C34.1489 0 44 7.16806 44 16.0081C44 24.2422 35.4567 31.0263 24.4689 31.9183H24.4664Z" fill="black"/>
</svg>
