<svg width="28" height="31" viewBox="0 0 28 31" fill="none" xmlns="http://www.w3.org/2000/svg">
<path d="M23.4219 16.2968L12.203 27.5158C10.9722 28.7465 9.30303 29.4379 7.56254 29.4379C5.82205 29.4379 4.15284 28.7465 2.92212 27.5158C1.69141 26.2851 1 24.6159 1 22.8754C1 21.1349 1.69141 19.4657 2.92212 18.235L18.8763 2.28079C19.2827 1.87459 19.7651 1.55242 20.296 1.33266C20.8269 1.1129 21.3959 0.999865 21.9704 1C22.545 1.00014 23.114 1.11344 23.6447 1.33345C24.1755 1.55346 24.6578 1.87586 25.064 2.28225C25.4702 2.68863 25.7924 3.17105 26.0121 3.70194C26.2319 4.23284 26.3449 4.80182 26.3448 5.3764C26.3446 5.95098 26.2313 6.51991 26.0113 7.0507C25.7913 7.5815 25.4689 8.06376 25.0625 8.46995L9.09671 24.4358C8.68252 24.8329 8.1289 25.0498 7.55517 25.0426C6.98144 25.0353 6.43353 24.8029 6.02954 24.3955C5.62554 23.988 5.3978 23.4382 5.3954 22.8644C5.393 22.2906 5.61613 21.7389 6.01671 21.3281L17.4063 9.93849M9.10983 24.4212L9.09525 24.4358" stroke="black" stroke-width="1.5" stroke-linecap="round" stroke-linejoin="round"/>
</svg>
