<svg width="38" height="38" viewBox="0 0 38 38" fill="none" xmlns="http://www.w3.org/2000/svg">
<path d="M31.0333 33.25L21.0583 23.275C20.2667 23.9083 19.3563 24.4097 18.3271 24.7792C17.2979 25.1486 16.2028 25.3333 15.0417 25.3333C12.1653 25.3333 9.73117 24.3369 7.73933 22.344C5.7475 20.3511 4.75106 17.917 4.75 15.0417C4.74895 12.1663 5.74539 9.73222 7.73933 7.73933C9.73328 5.74644 12.1674 4.75 15.0417 4.75C17.9159 4.75 20.3506 5.74644 22.3456 7.73933C24.3406 9.73222 25.3365 12.1663 25.3333 15.0417C25.3333 16.2028 25.1486 17.2979 24.7792 18.3271C24.4097 19.3563 23.9083 20.2667 23.275 21.0583L33.25 31.0333L31.0333 33.25ZM15.0417 22.1667C17.0208 22.1667 18.7034 21.4742 20.0893 20.0893C21.4753 18.7044 22.1677 17.0219 22.1667 15.0417C22.1656 13.0614 21.4732 11.3794 20.0893 9.99558C18.7055 8.61175 17.0229 7.91878 15.0417 7.91667C13.0604 7.91456 11.3784 8.60753 9.99558 9.99558C8.61281 11.3836 7.91983 13.0657 7.91667 15.0417C7.9135 17.0177 8.60647 18.7002 9.99558 20.0893C11.3847 21.4784 13.0667 22.1709 15.0417 22.1667Z" fill="black"/>
</svg>
