<svg width="20" height="20" viewBox="0 0 20 20" fill="none" xmlns="http://www.w3.org/2000/svg">
<path d="M7.31427 1.6617L0.314269 15.6617C0.0392779 16.2142 -0.0586207 16.8381 0.0339205 17.4483C0.126462 18.0585 0.404939 18.6252 0.831385 19.0714C1.25783 19.5175 1.81149 19.8213 2.41688 19.9412C3.02227 20.0612 3.64992 19.9915 4.21427 19.7417L9.58427 17.3417C9.7141 17.2872 9.85348 17.2592 9.99427 17.2592C10.1351 17.2592 10.2744 17.2872 10.4043 17.3417L15.7743 19.7417C16.231 19.945 16.7313 20.0309 17.2296 19.9917C17.728 19.9525 18.2087 19.7894 18.628 19.5171C19.0473 19.2449 19.3919 18.8722 19.6305 18.4329C19.8691 17.9936 19.9941 17.5016 19.9943 17.0017C19.9896 16.5335 19.8803 16.0722 19.6743 15.6517L12.6743 1.6517C12.4245 1.15511 12.0416 0.737686 11.5683 0.446014C11.0951 0.154342 10.5502 -0.000111087 9.99427 -0.000111063C9.43838 -0.000111039 8.89342 0.154342 8.42019 0.446014C7.94696 0.737686 7.56408 1.15511 7.31427 1.6517L7.31427 1.6617ZM10.8843 2.5517L17.8843 16.5517C17.9725 16.7355 18.0025 16.942 17.9701 17.1433C17.9377 17.3447 17.8446 17.5313 17.7031 17.6782C17.5617 17.8251 17.3787 17.9252 17.1787 17.9652C16.9787 18.0051 16.7713 17.983 16.5843 17.9017L11.2143 15.5117C11.1426 15.4808 11.0691 15.4541 10.9943 15.4317L10.9943 8.54171C10.9943 8.27649 10.8889 8.02214 10.7014 7.8346C10.5138 7.64706 10.2595 7.54171 9.99427 7.54171C9.72905 7.54171 9.4747 7.64706 9.28716 7.8346C9.09963 8.02214 8.99427 8.27649 8.99427 8.54171L8.99427 15.4317C8.91944 15.4541 8.84598 15.4808 8.77427 15.5117L3.40427 17.9017C3.21723 17.983 3.00982 18.0051 2.80984 17.9652C2.60986 17.9252 2.42687 17.8251 2.28542 17.6782C2.14396 17.5313 2.0508 17.3447 2.01842 17.1433C1.98604 16.942 2.016 16.7355 2.10427 16.5517L9.10427 2.5517C9.18819 2.3879 9.31568 2.25044 9.47271 2.15445C9.62975 2.05846 9.81022 2.00767 9.99427 2.00767C10.1783 2.00767 10.3588 2.05846 10.5158 2.15445C10.6729 2.25044 10.8004 2.3879 10.8843 2.5517Z" fill="black"/>
</svg>
