<svg width="23" height="23" viewBox="0 0 23 23" fill="none" xmlns="http://www.w3.org/2000/svg">
<path fill-rule="evenodd" clip-rule="evenodd" d="M11.5 23C5.14855 23 0 17.8514 0 11.5C0 5.14855 5.14855 0 11.5 0C17.8514 0 23 5.14855 23 11.5C23 17.8514 17.8514 23 11.5 23ZM11.5 21.62C14.184 21.62 16.7581 20.5538 18.6559 18.6559C20.5538 16.7581 21.62 14.184 21.62 11.5C21.62 8.81601 20.5538 6.24195 18.6559 4.34408C16.7581 2.44621 14.184 1.38 11.5 1.38C8.81601 1.38 6.24195 2.44621 4.34408 4.34408C2.44621 6.24195 1.38 8.81601 1.38 11.5C1.38 14.184 2.44621 16.7581 4.34408 18.6559C6.24195 20.5538 8.81601 21.62 11.5 21.62ZM4.6 12.075H18.4C18.4 13.905 17.673 15.66 16.379 16.954C15.085 18.248 13.33 18.975 11.5 18.975C9.67001 18.975 7.91496 18.248 6.62096 16.954C5.32696 15.66 4.6 13.905 4.6 12.075ZM11.5 17.595C12.724 17.5954 13.9135 17.1889 14.8813 16.4394C15.8491 15.69 16.5403 14.6402 16.8463 13.455H6.1525C6.45856 14.6404 7.14999 15.6904 8.11802 16.4398C9.08605 17.1892 10.2758 17.5956 11.5 17.595ZM7.475 9.775C7.0175 9.775 6.57874 9.59326 6.25524 9.26976C5.93174 8.94626 5.75 8.5075 5.75 8.05C5.75 7.5925 5.93174 7.15374 6.25524 6.83024C6.57874 6.50674 7.0175 6.325 7.475 6.325C7.9325 6.325 8.37126 6.50674 8.69476 6.83024C9.01826 7.15374 9.2 7.5925 9.2 8.05C9.2 8.5075 9.01826 8.94626 8.69476 9.26976C8.37126 9.59326 7.9325 9.775 7.475 9.775ZM15.525 9.775C15.0675 9.775 14.6287 9.59326 14.3052 9.26976C13.9817 8.94626 13.8 8.5075 13.8 8.05C13.8 7.5925 13.9817 7.15374 14.3052 6.83024C14.6287 6.50674 15.0675 6.325 15.525 6.325C15.9825 6.325 16.4213 6.50674 16.7448 6.83024C17.0683 7.15374 17.25 7.5925 17.25 8.05C17.25 8.5075 17.0683 8.94626 16.7448 9.26976C16.4213 9.59326 15.9825 9.775 15.525 9.775Z" fill="black"/>
</svg>
